<?xml version="1.0" encoding="UTF-8" standalone="no"?>
<svg
   viewBox="0 0 500 500"
   height="500"
   width="500"
   xml:space="preserve"
   version="1.1"
   id="svg1"
   sodipodi:docname="logo.svg"
   inkscape:version="1.4.4 (dcaf3e7, 2026-05-05)"
   xmlns:inkscape="http://www.inkscape.org/namespaces/inkscape"
   xmlns:sodipodi="http://sodipodi.sourceforge.net/DTD/sodipodi-0.dtd"
   xmlns="http://www.w3.org/2000/svg"
   xmlns:svg="http://www.w3.org/2000/svg"><defs
   id="defs1" /><sodipodi:namedview
   id="namedview1"
   pagecolor="#ffffff"
   bordercolor="#000000"
   borderopacity="0.25"
   inkscape:showpageshadow="2"
   inkscape:pageopacity="0.0"
   inkscape:pagecheckerboard="0"
   inkscape:deskcolor="#d1d1d1"
   showguides="true"
   inkscape:zoom="1.8172644"
   inkscape:cx="-101.52623"
   inkscape:cy="296.87479"
   inkscape:window-width="3072"
   inkscape:window-height="1694"
   inkscape:window-x="-11"
   inkscape:window-y="-11"
   inkscape:window-maximized="1"
   inkscape:current-layer="svg1"><sodipodi:guide
     position="60.773346,172.51945"
     orientation="1,0"
     id="guide1"
     inkscape:locked="false" /><sodipodi:guide
     position="135.40856,425.68093"
     orientation="0,-1"
     id="guide2"
     inkscape:locked="false" /><sodipodi:guide
     position="265.75875,47.859922"
     orientation="0,-1"
     id="guide3"
     inkscape:locked="false" /><sodipodi:guide
     position="438.71595,179.28016"
     orientation="1,0"
     id="guide4"
     inkscape:locked="false" /></sodipodi:namedview>
  
<g
   id="c"
   transform="matrix(4.2949156,0,0,4.2949156,61.023499,72.998374)"
   style="opacity:1;stroke:none;stroke-opacity:1;fill:#c2dbf5;fill-opacity:1"><path
     d="m 44.0002,0 c 12.1165,0 23.1183,4.9443 31.0896,12.9126 7.9709,7.9719 12.9103,18.9753 12.9103,31.0933 0,12.118 -4.9436,23.1213 -12.9103,31.0933 C 67.1186,83.0712 56.1167,88.0118 44.0002,88.0118 31.8837,88.0118 20.882,83.0675 12.911,75.0992 4.94,67.1272 0,56.1276 0,44.0059 0,31.8842 4.9437,20.8846 12.9109,12.9126 20.8819,4.9406 31.8838,0 44.0002,0 Z m 0,0.5371 c -11.9693,0 -22.835,4.8818 -30.7103,12.7581 -7.8754,7.8764 -12.7565,18.7435 -12.7565,30.7144 0,11.9709 4.8812,22.838 12.7565,30.7106 7.8753,7.8726 18.7411,12.7581 30.7103,12.7581 11.9692,0 22.8351,-4.8818 30.7105,-12.7581 7.8711,-7.8726 12.756,-18.7398 12.756,-30.7106 0,-11.9708 -4.8807,-22.838 -12.756,-30.7143 C 66.8353,5.4189 55.9694,0.5371 44.0002,0.5371 Z"
     style="fill:#c2dbf5;stroke-width:0px;stroke:none;stroke-opacity:1;fill-opacity:1"
     id="path1" /><path
     d="m 44.0002,14.2002 c 8.2064,0 15.6587,3.3477 21.0585,8.7482 5.3995,5.4005 8.7472,12.8501 8.7472,21.0612 0,8.2111 -3.3477,15.6607 -8.7472,21.0612 -5.3961,5.3968 -12.8484,8.7445 -21.0585,8.7445 -8.2101,0 -15.6586,-3.3477 -21.0584,-8.7445 -5.3998,-5.4005 -8.7471,-12.8501 -8.7471,-21.0612 0,-8.2111 3.3473,-15.6607 8.7471,-21.0612 5.3961,-5.3968 12.8484,-8.7482 21.0584,-8.7482 z m 0,0.5371 c -8.0592,0 -15.3754,3.2888 -20.6759,8.59 -5.3005,5.3012 -8.5889,12.622 -8.5889,20.6823 0,8.0603 3.2884,15.3774 8.5889,20.6786 5.3005,5.3012 12.6167,8.59 20.6759,8.59 8.0592,0 15.3754,-3.2888 20.6759,-8.59 5.3007,-5.3012 8.5889,-12.6183 8.5889,-20.6786 0,-8.0603 -3.2882,-15.3774 -8.5889,-20.6823 -5.3005,-5.3012 -12.6167,-8.59 -20.6759,-8.59 z"
     style="fill:#c2dbf5;stroke-width:0px;stroke:none;stroke-opacity:1;fill-opacity:1"
     id="path2" /><path
     d="M 37.5778,37.465 H 30.4823 C 24.2807,35.7801 24.6669,24.9092 31.9831,24.9092 h 10.5237 l 1.3683,-4.1129 1.681,4.1129 h 11.057 c 6.6468,1.2913 7.1949,10.7017 0.2833,12.5558 h -6.4849 l 2.9095,9.9292 7.5369,-0.2833 c 6.7791,2.2146 6.3083,12.4638 -0.2796,12.9052 L 45.4126,59.9609 43.9339,56.8634 42.5398,59.9057 28.6026,60.0161 C 20.2602,60.2442 20.3448,48.0784 27.992,47.3574 l 6.4886,-0.2943 3.1045,-9.5943 -0.0074,-0.0037 z m 2.8434,18.5008 H 28.0547 c -2.2843,0.0367 -2.3983,-4.9002 -0.0846,-4.7751 l 9.4459,-0.1766 6.4371,-17.1542 6.6872,17.3309 h 9.9352 c 2.4093,0.3605 2.4498,4.3005 0,4.7751 h -13.025 c -0.423,0 -3.8475,-10.6097 -3.8475,-10.6097 l -3.1817,10.6097 z m 8.1107,-22.4592 -1.0078,-5.0841 h 8.9015 c 1.3169,0.4084 1.5523,4.7199 -0.5922,5.0841 z m -8.9052,0.1876 1.0078,-5.0841 h -8.9016 c -1.3168,0.4084 -1.5523,4.7199 0.5922,5.0841 h 7.3015 z"
     style="fill:#c2dbf5;fill-rule:evenodd;stroke-width:0px;stroke:none;stroke-opacity:1;fill-opacity:1"
     id="path3" /><path
     d="m 36.1102,66.0824 0.2207,0.0478 -0.9085,2.8437 c -0.0442,0.1324 -0.0589,0.2244 -0.0515,0.2649 0.0073,0.0441 0.033,0.0772 0.0735,0.1104 0.0404,0.0294 0.1324,0.0589 0.2722,0.0919 l 0.2906,0.0626 -0.0663,0.206 -1.9458,-0.4303 0.0662,-0.2061 0.32,0.0699 c 0.1398,0.0294 0.2355,0.0404 0.2907,0.0294 0.0515,-0.0111 0.0993,-0.0331 0.1397,-0.0736 0.0405,-0.0404 0.0773,-0.1177 0.1177,-0.2391 l 0.7467,-2.3361 -0.7467,-0.1655 0.0662,-0.2098 c 0.423,0.0405 0.7945,0.0185 1.1182,-0.0699 l -0.0037,0.0037 z"
     style="fill:#c2dbf5;stroke-width:0px;stroke:none;stroke-opacity:1;fill-opacity:1"
     id="path4" /><path
     d="M 39.0602,70.8648 39.108,70.611 c 0.5039,0.0699 0.9196,0.0662 1.2506,-0.0148 0.3311,-0.0772 0.5922,-0.2317 0.7835,-0.4598 0.1913,-0.2281 0.3274,-0.5224 0.4156,-0.8866 -0.1287,0.125 -0.2538,0.2207 -0.3788,0.2832 -0.1214,0.0626 -0.2612,0.103 -0.412,0.1251 -0.1545,0.0221 -0.3126,0.0184 -0.4819,-0.0073 -0.2759,-0.0405 -0.5076,-0.1324 -0.7026,-0.2759 -0.1949,-0.1398 -0.3347,-0.3127 -0.4193,-0.5187 -0.0846,-0.2023 -0.103,-0.4304 -0.0589,-0.6805 0.0735,-0.401 0.2685,-0.6953 0.5775,-0.8829 0.3458,-0.2061 0.754,-0.2722 1.2286,-0.2024 0.3421,0.0515 0.618,0.1582 0.8276,0.3201 0.2096,0.1619 0.3604,0.3863 0.4487,0.6658 0.0883,0.2833 0.0956,0.6144 0.0257,0.997 -0.0699,0.3826 -0.206,0.7101 -0.4046,0.9896 -0.1986,0.2796 -0.445,0.4893 -0.7356,0.6291 -0.2907,0.1434 -0.5959,0.2208 -0.9159,0.2354 -0.32,0.0146 -0.6069,0 -0.8571,-0.0368 l -0.2354,-0.0367 -0.0037,0.011 z m 1.4161,-1.4788 c 0.2869,0.0441 0.5444,-0.0185 0.7687,-0.1876 0.2244,-0.1693 0.3605,-0.3937 0.412,-0.6695 0.0367,-0.195 0.0257,-0.3863 -0.0368,-0.5665 -0.0589,-0.1803 -0.1545,-0.3201 -0.2832,-0.4231 -0.1251,-0.103 -0.2833,-0.1655 -0.4635,-0.1949 -0.2759,-0.0405 -0.526,0.0184 -0.7467,0.1802 -0.2207,0.1618 -0.3605,0.4047 -0.4193,0.721 -0.0552,0.3054 -0.0111,0.5629 0.136,0.7688 0.1472,0.2061 0.3568,0.3311 0.629,0.3716 h 0.0037 z"
     style="fill:#c2dbf5;stroke-width:0px;stroke:none;stroke-opacity:1;fill-opacity:1"
     id="path5" /><path
     d="m 44.8168,66.9727 1.898,-0.1104 c 0.1141,-0.0074 0.1876,-0.0184 0.2097,-0.0294 0.0331,-0.0184 0.0478,-0.0589 0.0515,-0.1214 l 0.2244,-0.0147 0.0589,0.5812 -2.1077,0.1251 0.0442,0.9748 c 0.0846,-0.0294 0.1949,-0.0515 0.3273,-0.0736 0.1729,-0.0294 0.3237,-0.0478 0.4598,-0.0552 0.3385,-0.0184 0.64,0.0184 0.9049,0.1141 0.2612,0.0956 0.4709,0.2354 0.6217,0.4194 0.1509,0.1839 0.2391,0.3973 0.2612,0.6327 0.0367,0.3679 -0.0846,0.688 -0.3642,0.9602 -0.2795,0.2722 -0.6547,0.423 -1.1256,0.4488 -0.2722,0.0147 -0.5223,-0.0148 -0.7541,-0.0883 -0.228,-0.0772 -0.4156,-0.1839 -0.5517,-0.3201 -0.1398,-0.1361 -0.2133,-0.2612 -0.2244,-0.3679 -0.0073,-0.07 0.0148,-0.1361 0.0626,-0.1913 0.0478,-0.0552 0.1141,-0.0846 0.195,-0.092 0.0846,-0.0036 0.1618,0.0221 0.2354,0.0846 0.0404,0.0294 0.0919,0.1104 0.1545,0.2354 0.0883,0.1766 0.2024,0.3017 0.3494,0.3789 0.1435,0.0772 0.3163,0.1141 0.5187,0.0994 0.2023,-0.0111 0.3789,-0.0626 0.5297,-0.1509 0.1508,-0.0882 0.2648,-0.2134 0.3421,-0.3679 0.0772,-0.1545 0.1067,-0.3237 0.0883,-0.5077 -0.0184,-0.195 -0.0846,-0.3642 -0.1987,-0.5077 -0.114,-0.1435 -0.2648,-0.2539 -0.4598,-0.3274 -0.1912,-0.0736 -0.4193,-0.0993 -0.6841,-0.0846 -0.1618,0.0111 -0.3311,0.0331 -0.5113,0.0772 -0.1802,0.0405 -0.3347,0.092 -0.4635,0.1472 l -0.0809,-1.8725 -0.011,0.0037 z"
     style="fill:#c2dbf5;stroke-width:0px;stroke:none;stroke-opacity:1;fill-opacity:1"
     id="path6" /><path
     d="M 50.7205,67.267 50.4336,67.3 c -0.0441,-0.1949 -0.0478,-0.3642 -0.011,-0.5077 0.0478,-0.1949 0.1508,-0.3642 0.3126,-0.5077 0.1618,-0.1434 0.3715,-0.2501 0.6253,-0.3164 0.2502,-0.0662 0.4856,-0.0809 0.7063,-0.0478 0.2207,0.0331 0.4046,0.1067 0.5518,0.2171 0.1471,0.1104 0.2501,0.2465 0.3053,0.4047 0.0515,0.1398 0.0589,0.2722 0.0257,0.401 -0.0331,0.1287 -0.1067,0.2575 -0.2207,0.3825 -0.0809,0.0883 -0.1949,0.1766 -0.3421,0.2649 0.1839,-0.0221 0.3421,-0.0221 0.4709,0 0.2097,0.0367 0.3972,0.1177 0.5554,0.2391 0.1582,0.1214 0.2685,0.2722 0.3347,0.4525 0.103,0.2869 0.0589,0.5738 -0.1361,0.8645 -0.1949,0.2906 -0.5076,0.4929 -0.9416,0.6033 -0.4267,0.1104 -0.824,0.103 -1.1955,-0.0331 -0.3089,-0.1141 -0.4965,-0.2649 -0.5628,-0.4451 -0.0257,-0.07 -0.0221,-0.1361 0.0111,-0.1987 0.0331,-0.0625 0.0846,-0.103 0.1618,-0.1214 0.0809,-0.0221 0.1655,-0.0111 0.2428,0.0331 0.0441,0.0257 0.1104,0.0956 0.1949,0.2097 0.1214,0.1619 0.2685,0.2686 0.4414,0.3237 0.1728,0.0552 0.3641,0.0588 0.5702,0.0036 0.1839,-0.0478 0.3384,-0.1287 0.4561,-0.2427 0.1213,-0.1141 0.1949,-0.2502 0.2317,-0.4084 0.0368,-0.1582 0.0221,-0.3201 -0.0368,-0.4856 -0.0478,-0.1324 -0.1213,-0.2428 -0.2206,-0.3311 -0.0994,-0.0882 -0.2207,-0.1545 -0.3568,-0.1986 -0.1067,-0.0331 -0.2317,-0.0442 -0.3752,-0.0331 -0.1435,0.0111 -0.2685,0.0331 -0.3752,0.0589 l -0.2611,0.0699 -0.092,-0.2538 0.1655,-0.0442 c 0.1655,-0.0441 0.3163,-0.103 0.4561,-0.1765 0.1361,-0.0736 0.2317,-0.1802 0.2832,-0.3164 0.0479,-0.1361 0.0479,-0.2722 0,-0.4158 -0.0441,-0.1214 -0.114,-0.2244 -0.2133,-0.3053 -0.0993,-0.0809 -0.217,-0.1361 -0.3604,-0.1583 -0.1435,-0.0257 -0.2943,-0.0184 -0.4561,0.0258 -0.1582,0.0404 -0.2906,0.1103 -0.4009,0.2023 -0.1104,0.092 -0.1839,0.1987 -0.2281,0.3201 -0.0441,0.1178 -0.0515,0.2649 -0.0257,0.4415 l -0.0037,-0.0037 z"
     style="fill:#c2dbf5;stroke-width:0px;stroke:none;stroke-opacity:1;fill-opacity:1"
     id="path7" /><path
     d="m 81.6845,23.6142 c -0.0142,0.3054 -0.7464,1.2655 -0.9602,1.5267 -0.0621,0.0331 -0.125,0.0663 -0.187,0.1031 0.0293,0.1729 -0.0411,0.3016 -0.1878,0.401 -0.3455,0.2427 -0.9636,0.5297 -1.122,-0.0516 -0.0621,-0.2244 0.1182,-0.8535 0.0662,-0.938 0.151,-0.1361 0.3019,-0.2686 0.4562,-0.4047 0.2063,-0.092 0.4159,-0.1803 0.6214,-0.2722 0.5703,-0.2465 0.6701,-0.5077 1.3133,-0.3643 z m 2.0638,4.8414 c 0.0923,0.2686 0.2575,0.5444 0.2793,0.813 0.052,0.5556 -0.3673,1.2251 -1.0005,1.0742 -0.1434,-0.0883 -0.2834,-0.1765 -0.4268,-0.2649 -0.3749,-0.2428 -0.717,-0.4745 -1.0483,-0.802 -0.1761,-0.1765 -0.2902,-0.4488 -0.4486,-0.629 -0.125,-0.1031 -0.2499,-0.2061 -0.3749,-0.3091 -0.0151,0.0405 -0.0184,0.0589 0.0076,0.0993 0.0109,0.0479 0.0184,0.0957 0.0293,0.1398 0.0772,0.0074 0.2902,0.0478 0.3346,0.1178 -0.0151,0.0073 -0.026,0.0147 -0.0403,0.0221 0.3086,0.4525 0.4445,1.3023 0.3858,1.7953 -0.1065,0.2575 -0.2172,0.5187 -0.3237,0.7762 -0.0805,0.1876 -0.1694,0.4488 -0.3128,0.5923 -0.1946,0.195 -0.4814,0.2465 -0.6986,0.3237 -0.1652,0.0588 -0.3346,0.1692 -0.5006,0.1729 -0.7019,0.0111 -1.4382,-0.6144 -1.7208,-1.3096 -0.0184,-0.0515 -0.0226,-0.2023 -0.0738,-0.1693 -0.0075,-0.0147 -0.0151,-0.0257 -0.0218,-0.0404 -0.1367,0.103 -0.3061,0.3201 -0.4897,0.3606 -0.3162,0.0699 -0.7505,-0.1619 -1.0701,-0.1913 -0.3572,-0.0331 -0.7061,0.3053 -0.6516,0.6695 0.0738,0.1104 0.1434,0.2244 0.2214,0.3347 0.1174,0.0331 0.2935,0.1435 0.364,0.2612 0.1543,0.2649 0.3975,0.9675 0.3824,1.2288 -0.0369,0.5812 -0.7103,1.0741 -1.1036,0.4083 -0.0512,-0.2134 -0.1031,-0.4267 -0.1543,-0.6438 -0.0293,-0.1471 0.0034,-0.3053 -0.052,-0.4562 -0.0293,-0.0882 -0.1392,-0.2317 -0.2021,-0.2906 -0.0369,-0.0367 -0.0847,-0.1104 -0.1392,-0.0772 0.0293,0.0515 0.0361,0.0294 -0.0151,0.0626 -0.1987,0.0294 -0.4705,0.2428 -0.6323,0.3568 -0.3237,0.2244 -0.8319,0.4452 -1.1925,0.3164 -0.2457,-0.092 -0.4856,-0.2281 -0.6399,-0.4709 -0.1174,-0.1876 -0.0847,-0.4636 -0.1392,-0.6695 -0.0704,-0.1656 -0.14,-0.331 -0.2138,-0.5003 -0.0772,-0.2207 -0.1878,-1.0007 0.0478,-1.1405 0.125,0.1693 0.2499,0.3422 0.3757,0.5114 0.1174,0.1251 0.2348,0.2502 0.3564,0.3752 0.0327,0.0074 0.0629,0.0148 0.0218,0.0405 0.0151,0.0257 0.0294,0.0515 0.0478,0.0772 0.0151,-0.0074 0.026,-0.0147 0.0411,-0.0221 0.0293,0.0515 0.0109,0.0478 0.0621,0.0147 0.0293,0.0515 0.0369,0.0294 -0.0143,0.0626 0.073,0.0956 0.1468,0.195 0.2239,0.2906 0.2499,0.1141 0.379,0.3017 0.6767,0.3164 0.0444,0 0.0369,0 0.0629,0.0405 0.1099,-0.103 0.3346,-0.195 0.3422,-0.3606 V 31.7372 C 74.299,31.7005 74.2914,31.6673 74.2806,31.6305 74.1296,31.178 73.681,30.9095 73.4562,30.479 73.3606,30.2215 73.2616,29.9676 73.166,29.7102 73.1291,29.552 73.0956,29.3938 73.0587,29.2357 c 0.0444,-0.0442 0.0889,-0.0883 0.1325,-0.1325 0.0076,0.0148 0.0151,0.0258 0.0226,0.0405 0.3011,0.1508 0.5107,0.4194 0.7019,0.7468 0.2398,0.1693 0.5812,0.894 0.7547,1.1883 0.1065,-0.0074 0.2943,0.1434 0.3715,0.0956 -0.0335,-0.1067 0.0805,-0.2649 0.1501,-0.3421 0.1769,-0.195 0.3539,-0.4304 0.6516,-0.5187 0.3455,-0.1067 1.1405,0.1619 1.4047,-0.2465 0.2281,-0.3531 -0.6063,-0.7504 -0.816,-0.8313 -0.1216,-0.0185 -0.2432,-0.0331 -0.3681,-0.0479 -0.0662,-0.033 -0.1325,-0.1508 -0.1107,-0.228 0.0478,-0.1802 1.0415,-0.4267 1.1807,-0.3863 0.2801,0.0772 0.6843,0.3458 0.8386,0.6107 0.2097,0.3532 0.0704,0.5886 0.1401,0.8793 0.0922,0.3862 0.9158,0.9417 1.247,1.0705 0.5115,0.1949 0.9602,-0.0331 1.2948,-0.4378 0.0109,-0.0111 0.1401,-0.1693 0.0403,-0.1141 0.0813,-0.1582 0.1727,-0.2869 0.1769,-0.4819 0.0142,-0.5849 -0.4898,-1.3943 -0.982,-1.7106 -0.239,-0.1545 -0.5266,-0.1545 -0.7841,-0.2538 -1.1807,-0.4599 -2.6299,-0.9933 -3.8911,-0.596 -0.0075,-0.0148 -0.0151,-0.0257 -0.0226,-0.0405 -0.2239,0.1214 -1.0885,0.3495 -1.2646,0.2318 -0.3312,-0.2207 -0.1736,-1.1772 0.1619,-1.3759 0.0587,-0.0331 0.1686,-0.0809 0.2055,-0.0147 0.1803,-0.2686 0.5887,-0.5041 0.868,-0.6695 0.1258,-0.1435 0.3757,0.103 0.4419,0.2134 0.1392,0.0367 0.4151,0.1251 0.5518,0.0441 0.0621,0.0074 0.125,0.0184 0.187,0.0257 0.644,0.0736 1.2545,0.4194 1.8281,0.6512 0.0847,0.033 0.2063,0.0699 0.2943,0.0147 -0.0075,0.0442 -0.0142,0.0626 -0.0553,0.0846 0.0151,0.0257 0.0302,0.0515 0.0478,0.0772 0.379,-0.0404 1.3795,0.6107 1.7217,0.8094 0.2801,0.1582 0.5887,0.2649 0.8646,0.4304 0.1694,0.1361 0.3422,0.2686 0.5115,0.4047 0.0621,0.0515 0.3271,0.1839 0.3053,0.1986 0.0294,0.0479 0.0252,0.0883 0.0847,0.0552 0.0512,0.0552 0.1023,0.1141 0.1543,0.1729 0.1065,-0.0294 0.3564,-0.0957 0.353,-0.2539 -0.0034,-0.0993 -0.3681,-0.526 -0.4227,-0.4929 -0.0554,0.0037 -0.1258,0.0552 -0.1618,-0.0074 -0.0185,-0.0589 -0.1845,-0.0515 -0.2247,-0.0257 -0.0738,-0.1619 -0.2683,-0.2869 -0.3824,-0.4121 -0.3279,-0.3679 0.0662,-0.7615 0.1727,-1.0705 0.0151,-0.0404 0.0847,-0.2501 0.1359,-0.1619 0.1543,0.0626 0.1987,0.3348 0.2759,0.4709 0.1107,0.0552 0.2021,0.2501 0.291,0.3421 0.2902,0.2906 0.7321,0.4966 0.9527,0.8718 0.2533,0.1398 0.3858,0.2539 0.6726,0.3385 l -0.0143,0.0037 z"
     style="fill:#c2dbf5;fill-rule:evenodd;stroke-width:0px;stroke:none;stroke-opacity:1;fill-opacity:1"
     id="path8" /><path
     d="m 55.2338,2.3508 c 0.1471,0.0846 0.3789,0.1582 0.4892,0.2759 0.1618,0.1729 0.1876,0.4782 0.2133,0.699 0.0221,0.2612 0.0404,0.5224 0.0588,0.7836 C 55.9804,4.3411 55.8296,4.628 55.7487,4.8267 55.6126,5.1541 55.5169,5.4705 55.3514,5.7501 55.208,5.9598 55.0608,6.1695 54.9174,6.3755 54.8769,6.438 54.5091,6.7581 54.6783,6.8059 54.6967,6.7434 54.704,6.7654 54.6452,6.747 55.1197,6.6219 55.5942,6.4968 56.0687,6.3718 56.4254,6.2283 56.7823,6.0885 57.1391,5.9451 57.8416,5.6986 58.5884,5.5735 59.2946,5.3013 59.5631,5.1836 59.8279,5.0622 60.0965,4.9445 60.2583,4.8452 60.4313,4.503 60.6189,4.481 c 0.2869,-0.0405 0.5443,0.3385 0.5959,0.5702 0.0404,0.1803 0.0367,0.4304 -0.1325,0.5518 -0.2648,0.1803 -0.7393,0.0699 -1.0446,0.1435 -0.3863,0.1104 -0.7688,0.2244 -1.155,0.3348 -0.4892,0.0993 -0.9748,0.1987 -1.464,0.298 -0.4524,0.1214 -0.9012,0.2649 -1.3683,0.3421 -0.0404,0.0074 -0.0588,0.0037 -0.0735,0.0552 -0.0331,0.0147 -0.0589,0.0331 -0.011,0.0442 -0.0037,0.0147 -0.0074,0.0331 -0.0148,0.0478 0.0148,0.0037 0.0331,0.0074 0.0478,0.0147 0.0736,-0.0184 0.2428,0.0221 0.2685,-0.0736 0.1324,0.0515 0.2612,0.103 0.3936,0.1508 0.3715,0.1508 0.5921,0.4157 0.8276,0.7027 0.0404,0.0478 0.1508,0.0993 0.1287,0.1692 -0.092,0.0883 -0.1839,0.1803 -0.2759,0.2686 -0.3752,0.2833 -0.8313,0.4451 -1.2469,0.6144 -0.2318,0.0919 -0.4598,0.1839 -0.6915,0.2759 -0.0405,0.0111 -0.0994,0.0185 -0.1177,0.0736 -0.0331,0.0147 -0.0589,0.0367 -0.0699,0.0772 0.2501,0.1949 0.4634,0.3568 0.8092,0.4709 0.0662,0.0221 0.0479,0.0074 0.0331,0.0626 0.0148,0.0037 0.0331,0.0074 0.0478,0.0147 -0.0073,0.0294 -0.0184,0.0626 -0.0257,0.092 -0.4524,-0.0074 -0.4965,0.6548 -0.7577,0.5812 -0.0037,0.0148 -0.0074,0.0331 -0.0148,0.0478 0.0478,0.0148 0.092,0.0257 0.1398,0.0405 -0.0184,0.0589 -0.0294,0.0404 0.0331,0.0589 0.0037,-0.0148 0.0073,-0.0294 0.011,-0.0442 0.0846,-0.0257 0.1729,-0.0515 0.2575,-0.0772 0.0735,-0.0478 0.1471,-0.206 0.2574,-0.1729 -0.0699,0.6511 -0.7173,0.9013 -1.0041,1.4126 -0.2796,0.4966 -0.3568,1.4126 -0.412,1.9129 -0.0148,0.1435 -0.0772,0.3274 -0.2097,0.3826 -0.2097,0.0883 -1.1476,-0.4562 -1.3978,-0.5592 -0.1067,-0.0257 -0.2133,-0.0478 -0.32,-0.0736 -0.0294,0.0294 -0.103,0.0699 -0.0257,0.0919 -0.0772,0.1361 -0.1214,0.3054 -0.2465,0.3974 -0.1692,0.1214 -0.3604,0.0147 -0.5407,-0.0405 -0.1582,-0.0404 -0.3126,-0.0772 -0.4671,-0.1178 -0.4819,-0.2869 -0.9122,-1.0889 -0.5555,-1.6297 0.0699,-0.1067 0.1913,-0.1802 0.3053,-0.0919 0.0846,0.0662 0.0772,0.2023 0.114,0.2906 0.1434,0.331 0.4561,0.6805 0.8165,0.7836 0.0074,-0.0294 0.0185,-0.0589 0.0257,-0.092 0.0148,0.0037 0.0294,0.0074 0.0478,0.0147 0.0148,-0.1251 0.1251,-0.2612 0.2612,-0.2244 0.4856,-0.1104 0.8165,0.1839 1.2543,-0.2244 0.0368,-0.0367 0.206,-0.2575 0.0809,-0.2943 0.0037,-0.0147 0.0074,-0.0294 0.0111,-0.0441 -0.081,-0.0111 -0.2207,-0.0405 -0.2907,-0.0957 -0.0919,-0.0736 -0.7356,-0.8424 -0.7099,-0.927 -0.0148,-0.0037 -0.0294,-0.0074 -0.0442,-0.0111 0.1177,-0.0551 0.8976,-0.1949 0.9086,-0.2391 0.0293,-0.0404 0.0588,-0.0809 0.0845,-0.1251 -0.1765,-0.1361 -0.4561,-0.3164 -0.3788,-0.6033 0.0662,-0.0148 0.2023,-0.0074 0.2243,-0.0846 0.0368,0.0552 0.0442,0.1104 0.1104,0.1287 0.0037,-0.0148 0.0074,-0.0294 0.0147,-0.0478 0.0148,0.0037 0.0331,0.0073 0.0479,0.0147 C 53.729,10.058 53.7069,10.069 53.7695,10.0874 53.7768,10.058 53.7879,10.0286 53.7952,9.9955 53.6775,9.8226 53.5892,9.4915 53.3611,9.4253 53.2985,9.3627 53.1661,9.223 53.0778,9.1973 53.0815,9.1788 53.0852,9.1679 53.0926,9.1494 54.1152,8.9839 55.1892,9.006 56.0021,8.2481 56.1161,8.1377 56.2596,8.0642 56.3479,7.928 56.4178,7.8213 56.381,7.6742 56.4141,7.5564 54.9243,7.2363 53.442,7.446 52.0883,7.7955 51.6101,7.9169 51.1577,8.2333 50.6354,8.1744 50.4036,8.1487 50.1057,7.9905 49.9696,7.8323 49.9144,7.7661 49.6607,7.251 49.6533,7.2474 49.6718,7.1849 49.6496,7.1959 49.7122,7.2143 c 0.1435,-0.0368 0.3715,0.0037 0.5297,0.0515 0.2685,-0.0294 0.537,-0.0625 0.8093,-0.0956 0.8424,-0.1508 1.6773,-0.3201 2.5417,-0.3642 0.0663,-0.0037 0.0993,0.011 0.1177,-0.0589 -0.0626,-0.0184 -0.0515,0 -0.0331,-0.0589 0.0589,-0.011 0.0993,0 0.1177,-0.0662 -0.0626,-0.0184 -0.0515,0 -0.0331,-0.0589 C 54.2366,6.14 54.9208,3.609 54.7773,2.9726 54.7625,2.9101 54.7589,2.5753 54.8251,2.5937 54.9391,2.476 55.0789,2.4024 55.2371,2.3619 l -0.0037,-0.011 z m 1.3426,1.7658 c 0.2575,0.2171 0.3458,0.493 0.7246,0.5996 0.1471,-0.0221 0.3604,0.0515 0.5186,0.0957 0.0809,0.0074 0.1618,0.0147 0.2428,0.0184 -0.0147,0.0589 -0.0037,0.0993 -0.0699,0.0809 -0.2133,0.0993 -0.4267,0.1987 -0.64,0.298 C 57.2679,5.2791 57.1833,5.3527 57.095,5.4263 56.8375,5.5183 56.124,5.0327 56.2122,4.7126 56.1901,4.4698 56.4109,4.2344 56.5764,4.1203 Z M 52.4419,3.9989 c 0.2207,0.1472 0.3348,0.4194 0.5996,0.5224 0.4009,0.1545 0.8902,-0.1067 1.2395,-0.0074 -0.2169,0.4194 -0.7173,0.6622 -1.0041,1.019 C 53.1629,5.669 53.0745,5.8456 52.9091,5.9265 52.7399,6.0038 52.4897,6.0332 52.3279,5.9008 51.9821,5.6139 51.9858,5.1246 51.9491,4.7236 51.9343,4.5581 51.8534,4.3778 51.8975,4.1939 c 0.0111,-0.0552 0.0331,-0.2354 0.1067,-0.217 0.0037,-0.0147 0.0074,-0.0294 0.0111,-0.0441 0.1435,0.0221 0.2832,0.0478 0.4267,0.0699 V 3.999 Z m 3.4282,8.6489 c 0.7026,0.2465 1.1293,0.5555 1.1109,1.306 -0.0037,0.0515 0.0073,0.0515 -0.0479,0.0368 -0.2721,0.3237 -1.166,0.8609 -1.5964,0.7431 0.2502,-0.5555 0.5554,-1.2067 0.4745,-1.8321 -0.0037,-0.033 -0.0589,-0.1361 0.0221,-0.1104 0.0148,-0.0478 0.0258,-0.0919 0.0405,-0.1397 z"
     style="fill:#c2dbf5;fill-rule:evenodd;stroke-width:0px;stroke:none;stroke-opacity:1;fill-opacity:1"
     id="path9" /><path
     d="m 6.1723,23.4855 c 0.4745,-0.4709 0.9159,0.1067 1.372,0.3826 0.331,0.2023 0.7761,0.0809 1.1255,0.2317 0.1692,0.0736 0.3201,0.1545 0.4709,0.2428 0.0662,0.0993 0.1361,0.2024 0.2023,0.3017 0.1692,0.2171 0.3385,0.4378 0.5076,0.6548 0.195,0.4268 0.3863,0.8572 0.5812,1.284 0.1986,0.3384 0.7319,0.7468 1.1071,0.9711 0.0479,0.0294 0.1031,0.0294 0.0626,0.0846 0.0257,0.0184 0.0515,0.0368 0.0772,0.0552 0.0294,-0.0368 0.0552,-0.0772 0.0846,-0.1141 -0.0404,-0.1876 -0.0809,-0.3716 -0.1213,-0.5555 -0.0516,-0.1508 -0.0994,-0.3054 -0.1509,-0.4562 -0.011,-0.1361 -0.0184,-0.2686 -0.0294,-0.4047 -0.0662,-0.2686 -0.1802,-0.5812 -0.1471,-0.8609 0.0073,-0.0625 0.0147,-0.033 -0.0331,-0.0699 C 11.2741,25.2033 11.2704,25.1664 11.2411,25.2033 11.0682,25.0157 10.8917,24.7839 10.6599,24.6184 10.4356,24.4565 10.156,24.3608 9.95,24.2137 9.961,24.199 9.9684,24.188 9.9794,24.1769 9.9646,24.1659 9.9537,24.1585 9.9389,24.1475 10.0787,24.0151 10.3325,23.8863 10.4024,23.6766 10.4833,23.4228 10.0456,22.5914 9.8139,22.4479 9.5012,22.3081 9.1922,22.1683 8.8759,22.0285 8.8869,22.0137 8.8943,22.0028 8.9053,21.9917 8.8905,21.9806 8.8796,21.9733 8.8648,21.9623 c 0.0663,-0.092 0.1324,-0.1802 0.195,-0.2722 0.0147,-0.1545 0.1177,-0.3384 0.217,-0.4856 0.6841,-1.019 1.692,-0.2097 1.6847,0.688 0,0.0257 -0.0257,0.2943 0.0404,0.2023 -0.0221,0.4194 -0.0735,1.1257 0.3311,1.4163 0.0441,0.1178 0.7283,0.3495 0.8976,0.4709 0.0184,-0.0257 0.0367,-0.0515 0.0552,-0.0772 0.0404,-0.0294 0.0808,-0.0589 0.1213,-0.0883 -0.125,-0.4745 -0.0294,-1.0374 -0.1067,-1.523 -0.0441,-0.2796 -0.2023,-0.5187 -0.1839,-0.8204 0,-0.0515 -0.0148,-0.2317 0.0515,-0.1876 0.0552,-0.1287 0.1141,-0.2575 0.1692,-0.3862 0.0294,-0.1214 0.0588,-0.2465 0.0845,-0.3715 0.2465,0.0699 0.4929,0.1361 0.7357,0.206 0.0956,0.0589 0.1545,0.1802 0.2023,0.2686 0.2649,0.4929 0.1546,0.7137 0.1546,1.2361 0,0.1876 0.0478,0.3789 0.0699,0.5629 0.0147,0.1545 0.0147,0.3458 0.1104,0.4745 0.2648,0.3606 0.9122,0.5665 1.2617,0.916 0.3421,0.3421 0.5333,0.802 0.8056,1.1882 0.1802,0.2576 0.4414,0.5997 0.7062,0.7984 0.2318,0.1434 0.4635,0.2869 0.6916,0.4304 0.6069,-0.2098 1.8906,0.401 1.3205,1.1882 -0.4009,-0.0184 -0.8386,0.2061 -1.2874,0.0736 -0.3715,-0.1067 -0.9012,-0.732 -1.2286,-0.9969 -0.2428,-0.1509 -0.4855,-0.3054 -0.7283,-0.4562 -0.3567,-0.2244 -0.6326,-0.5482 -0.9674,-0.791 -0.114,-0.0589 -0.2243,-0.1177 -0.3421,-0.1765 -0.0184,0.0257 -0.0367,0.0515 -0.0552,0.0772 0.0552,0.092 0.1766,0.2465 0.092,0.3605 0.0589,0.0074 0.1582,-0.0036 0.2097,0.0331 -0.114,0.3937 0.3863,0.7652 0.2685,1.2103 -0.0331,0.1287 -0.2648,0.2207 -0.3752,0.2539 -0.7872,0.2171 -1.1697,-0.3569 -1.5927,-0.894 -0.0662,-0.0993 -0.1361,-0.1987 -0.206,-0.2943 -0.011,0.0147 -0.0184,0.0257 -0.0294,0.0368 -0.0147,-0.0111 -0.0257,-0.0185 -0.0404,-0.0294 -0.092,0.2649 0.1067,0.6842 0.1582,0.9638 0.0735,0.4157 0.3126,0.9491 0.6069,1.2434 0.2318,0.2391 0.6437,0.3937 0.9085,0.5187 0.3311,0.1582 0.629,0.3605 0.9637,0.4378 0.3936,0.0919 0.9637,0.0845 1.3132,0.3347 -0.3494,1.2618 -2.0267,-0.2502 -2.5969,0.8351 -0.0441,0.0809 -0.1177,0.2686 -0.0184,0.3384 -0.2317,0.2207 -0.4892,0.3201 -0.7945,0.2061 -0.3679,-0.1361 -0.7872,-0.3606 -0.7468,-0.8314 0.0368,-0.1619 0.0736,-0.3274 0.1104,-0.4893 0.0257,-0.3789 -0.1324,-0.9013 -0.2721,-1.2472 -0.1177,-0.2906 -0.5407,-0.5555 -0.8166,-0.7541 -0.0552,0.0184 -0.1435,0.0736 -0.1987,0.033 -0.0367,0.0515 -0.0404,0.0294 0.0111,0.0663 0.0294,0.1986 0.1765,0.4121 0.1398,0.6107 -0.0589,0.2906 -0.5554,0.6401 -0.4598,0.9418 0.0956,0.3127 0.3274,0.5849 0.5187,0.8535 0.3384,0.4819 0.5812,1.0668 0.9784,1.512 0.2024,0.2244 0.5554,0.3568 0.6989,0.618 0.0626,0.1214 0.0846,0.3421 0.0552,0.4782 -0.0294,0.1434 -0.1435,0.3237 -0.2832,0.3899 -0.2759,0.1287 -1.2948,-0.1104 -1.5266,-0.3384 C 10.7816,32.767 10.6896,32.5205 10.5683,32.3329 10.5389,32.2888 10.5462,32.2005 10.4911,32.16 10.3771,32.1196 9.7554,31.4647 9.7885,31.4169 9.737,31.3801 9.7591,31.3765 9.7222,31.428 9.4022,31.0233 8.7842,30.6186 8.2803,30.5855 8.0081,30.5671 7.7249,30.6444 7.4453,30.637 c -0.0478,0 -0.2758,0.0074 -0.2207,-0.0736 -0.0993,-0.493 0.4635,-1.409 0.8534,-1.7953 0.1471,-0.1104 0.2979,-0.2208 0.4487,-0.3311 0.011,0.0074 0.0257,0.0185 0.0367,0.0257 0.092,0.0552 0.1876,0.1141 0.2796,0.1729 0.1435,0.0736 0.3348,0.1656 0.4304,0.3017 0.4598,0.6768 -0.2317,0.7357 -0.1177,1.2397 0.0552,0.2502 0.3605,0.5151 0.5334,0.7137 0.2833,0.331 0.5407,0.7137 0.8498,1.0411 0.1545,0.1693 0.4119,0.3237 0.5848,0.0846 -0.114,-0.2281 -0.1214,-0.5261 -0.1802,-0.7836 -0.1067,-0.4525 -0.2685,-1.1073 -0.5407,-1.4863 -0.0294,-0.0404 -0.1582,-0.1839 -0.1251,-0.2244 -0.0515,-0.0368 -0.0478,-0.0148 -0.011,-0.0663 -0.0331,0.0037 -0.0663,0.0111 -0.1067,-0.0184 0,0 0.0294,-0.1214 -0.0111,-0.0663 C 9.9798,29.3527 9.7737,29.3381 9.6119,29.2203 9.6376,28.9959 9.7443,28.7678 9.7628,28.5397 9.7738,28.3632 9.7076,28.1903 9.7039,28.0174 9.7002,27.7488 9.7995,27.2412 9.7076,26.991 9.531,26.5018 8.891,26.2001 8.4533,25.8616 7.9567,25.4606 7.4601,25.0633 6.9598,24.6623 6.6582,24.4158 6.5736,24.1289 6.4007,23.8346 6.3198,23.7169 6.2352,23.5992 6.1506,23.4814 l 0.0221,0.0037 z M 5.455,28.1502 c 0.1986,-0.1839 0.6804,-0.6401 0.9416,-0.6033 0.1067,0.0184 0.32,0.1214 0.3863,0.2207 0.1728,0.2759 0.2906,1.2361 0.0846,1.5194 C 6.7608,29.2061 6.6284,29.0662 6.496,29.0405 6.1024,28.9669 5.6095,29.8535 5.238,29.5849 5.2527,29.32 5.2049,28.6542 5.3593,28.4371 c 0.0148,0.0111 0.0257,0.0185 0.0368,0.0294 0.0184,-0.1067 0.033,-0.2097 0.0515,-0.3164 H 5.455 Z"
     style="fill:#c2dbf5;fill-rule:evenodd;stroke-width:0px;stroke:none;stroke-opacity:1;fill-opacity:1"
     id="path10" /><path
     d="m 71.4334,12.2173 c 0.1359,0.1839 0.2717,0.3679 0.4042,0.5518 -0.1099,0.1913 -0.3237,0.3606 -0.4705,0.5371 -0.1694,0.2097 -0.3421,0.423 -0.5115,0.6291 -0.3128,0.2501 -0.629,0.4966 -0.9417,0.7468 -0.2499,0.1729 -0.5476,0.3237 -0.7799,0.5481 -0.0662,0.0809 -0.1325,0.1619 -0.2021,0.2428 -0.0218,0.0589 0.0109,0.1288 -0.0327,0.1803 0.2684,0.1582 0.5996,0.2759 0.842,0.4892 0.0587,0.0148 0.1174,0.0809 0.1694,0.0221 0.364,0.3421 0.9418,0.6107 1.3753,0.732 0.1543,0.0442 0.2985,-0.0441 0.4453,0.0368 0.39,0.1986 0.8721,0.802 0.53,1.1882 -0.4009,-0.1655 -0.821,-0.5003 -1.1958,-0.7394 -0.5627,-0.3605 -1.1439,-0.6254 -1.7325,-0.8645 -0.3019,-0.1251 -0.7321,-0.3642 -1.0701,-0.3016 -0.2356,0.0404 -0.4159,0.331 -0.5996,0.5077 -0.6954,0.6585 -1.729,1.6481 -2.6596,1.5708 -0.1987,-0.0184 -0.4414,-0.092 -0.6143,-0.2207 -0.1545,-0.1177 -0.6548,-0.8681 -0.6253,-1.0558 0.0294,-0.2061 0.3016,-0.3311 0.4341,-0.4893 0.0442,-0.0552 0.2391,-0.3606 0.3053,-0.3054 0.0846,-0.033 0.1545,-0.0221 0.2428,0.0037 0.5517,0.1324 0.9563,-0.0736 1.4419,-0.2795 0.1287,-0.0442 0.2538,-0.0846 0.3826,-0.1288 0.0367,-0.0221 0.2023,-0.0699 0.1324,-0.1324 -0.1361,-0.3421 -0.5959,-0.4819 -0.835,-0.7799 -0.1766,-0.2207 -0.4451,-1.4016 -0.1876,-1.5745 0.3494,-0.2354 1.2028,1.2987 1.4088,1.4826 0.1839,0.0589 0.3124,0.2612 0.5153,0.1361 0.0109,0.011 0.0252,0.0221 0.0361,0.0294 0.317,-0.2502 0.6298,-0.504 0.9459,-0.7542 0.2868,-0.195 0.5736,-0.39 0.8604,-0.5849 0.353,-0.3274 0.7061,-0.6512 1.0558,-0.9786 0.1325,-0.1287 0.2574,-0.3715 0.4084,-0.4451 0.1434,-0.0736 0.364,-0.0037 0.5224,-0.0074 v 0.0074 z m -3.3988,5.8566 c 0.6726,0.7725 1.0114,2.314 0.0696,3.0461 -0.2021,0.1545 -0.3858,0.2759 -0.6398,0.228 -1.0227,-0.1876 -0.3422,-2.1153 -0.1032,-2.7076 0.052,-0.1214 0.026,-0.2906 0.1359,-0.401 0.1367,-0.1398 0.3681,-0.1141 0.5375,-0.1656 z"
     style="fill:#c2dbf5;fill-rule:evenodd;stroke-width:0px;stroke:none;stroke-opacity:1;fill-opacity:1"
     id="path11" /><path
     d="m 16.6665,14.5166 c 0.0772,-0.0368 0.2097,-0.1141 0.2538,-0.0368 0.2133,0.1288 0.3863,0.3237 0.5885,0.4672 0.1803,0.1287 0.4194,0.1324 0.607,0.2465 0.206,0.1251 0.9747,0.8387 0.9711,1.0852 -0.0074,0.3532 -0.3016,0.3201 -0.4783,0.5519 -0.1287,0.1655 -0.114,0.4047 -0.1471,0.5996 -0.0148,0.0772 -0.0626,0.2318 -0.0221,0.3091 -0.195,-0.0074 -0.3458,-0.1693 -0.4672,-0.3311 -0.206,-0.2722 -0.2428,-0.721 -0.3715,-1.0153 -0.1508,-0.1839 -0.298,-0.3679 -0.445,-0.5518 -0.1435,-0.184 -0.5076,-1.1037 -0.4892,-1.3244 z m 5.9074,-1.913 c 0.2391,-0.103 0.5407,-0.2943 0.7798,-0.2722 0.1177,0.011 0.206,0.1104 0.2722,0.2134 0.2502,0.3825 0.1067,0.8755 -0.2759,1.1 0.0074,0.0147 0.0184,0.0294 0.0257,0.0404 0.1324,0.0074 0.3274,0.0883 0.3973,0.2097 0.206,0.2391 0.2832,0.6034 0.2869,0.8756 0,0.1545 -0.0442,0.3899 0.0441,0.5371 0.0148,-0.0074 0.0294,-0.0185 0.0405,-0.0221 0.0073,0.0148 0.0184,0.0294 0.0257,0.0405 0.0882,-0.0736 0.423,-0.3201 0.4304,-0.3054 0.0257,-0.0147 0.0552,-0.0331 0.0809,-0.0478 -0.0074,-0.0147 -0.0148,-0.0257 -0.0257,-0.0404 0.1287,-0.1325 0.1876,-0.3422 0.3458,-0.4489 0.434,-0.2906 1.5927,-0.4488 1.692,0.2759 -0.0185,0.0809 -0.0331,0.1619 -0.0516,0.2428 -0.1876,0.6732 -0.9563,0.7357 -1.5118,0.9528 -0.0478,0.0185 -0.2281,0.0699 -0.1876,0.1398 -0.0957,0.2465 -0.3237,0.3164 -0.5297,0.504 -0.0809,0.0883 -0.1582,0.1766 -0.2428,0.2649 -0.3752,0.3458 -0.9196,0.7615 -1.4088,0.9896 -0.2097,0.0994 -0.4597,0.0111 -0.6069,0.0957 -0.0257,-0.0405 -0.0478,-0.0809 -0.0735,-0.1251 0.0589,-0.1361 0.0919,-0.7174 0.206,-0.7836 0.3348,-0.0221 0.6143,-0.3054 0.7357,-0.5812 0.0294,-0.0736 0.0294,-0.1987 0.1103,-0.2428 -0.0919,-0.1067 -0.0515,-0.2759 -0.136,-0.4194 0.0184,-0.0699 -0.0037,-0.2171 0.0699,-0.2612 -0.4819,-0.3384 -0.298,-1.1404 -0.9527,-0.3936 -0.0773,0.0846 -0.298,0.4267 -0.2355,0.5371 -0.1397,0.0404 -0.2795,0.0809 -0.4193,0.1214 -0.2796,0.0294 -0.6548,-0.1693 -0.8387,-0.3679 -0.0735,-0.0074 -0.1728,-0.0809 -0.2243,-0.1472 -0.0184,-0.0846 -0.0368,-0.1655 -0.0589,-0.2501 0.1986,-0.0442 0.4598,0.0037 0.6547,-0.1104 0.2097,-0.1214 0.309,-0.4304 0.4009,-0.6291 0.2355,-0.5077 0.5334,-1.1882 1.0631,-1.501 0.0478,-0.0478 0.0956,-0.0919 0.1398,-0.1361 -0.0074,-0.0147 -0.0148,-0.0257 -0.0258,-0.0404 l 0.0037,-0.0148 z m -4.0277,5.4042 c 0.1213,0.0037 0.217,0.0699 0.32,0.114 0.0919,0.0294 0.1876,0.0626 0.2795,0.0957 0.1655,0.0846 0.2502,0.2795 0.3458,0.4525 0.3053,0.5629 0.6622,0.8682 1.2727,0.6549 0.0662,-0.0221 0.3936,-0.1619 0.3568,-0.2281 0.3126,-0.3458 0.3936,-1.122 0.1545,-1.5304 0.0478,-0.0809 0.0809,-0.2134 0.1728,-0.2686 0.0589,0.39 0.1214,0.7762 0.1803,1.1662 0.0699,0.5775 0.3052,1.0668 -0.1251,1.5745 -0.1287,0.0956 -0.2538,0.195 -0.3825,0.2943 -0.1509,0.1141 -0.3936,0.3311 -0.5922,0.3899 -0.2648,0.0772 -0.5444,-0.0772 -0.7357,-0.2538 -0.0993,-0.092 -0.1765,-0.2612 -0.2538,-0.39 -0.3605,-0.6144 -1.0446,-1.3648 -1.0005,-2.0711 z"
     style="fill:#c2dbf5;fill-rule:evenodd;stroke-width:0px;stroke:none;stroke-opacity:1;fill-opacity:1"
     id="path12" /><path
     d="m 38.5747,5.8236 c 0.2685,-0.0147 0.949,-0.2391 1.0704,0.0736 0.0515,0.1361 -0.0626,0.3348 -0.1508,0.4304 -0.4304,0.4341 -1.4235,0.8572 -1.6774,1.4495 -0.0956,0.2244 0.4487,0.7248 0.5113,1.0669 0.0809,0.4488 -0.3126,0.9087 -0.4819,1.2949 -0.0368,0.0809 -0.1104,0.2135 -0.0883,0.3091 0.1398,-0.0441 0.6585,-0.1178 0.6327,-0.2354 0.0147,-0.0037 0.0331,-0.0074 0.0478,-0.0111 0.114,-0.0074 0.2244,-0.0147 0.3384,-0.0221 0.0846,-0.0883 0.2943,-0.309 0.4157,-0.3348 0.0037,0.0148 0.0074,0.0331 0.011,0.0479 0.5407,-0.3348 1.3316,-0.7137 1.9128,-0.2355 0.0809,0.1141 0.1618,0.2281 0.2391,0.3422 0.1287,0.1508 0.2097,0.412 0.0257,0.5665 -0.2722,0.2244 -0.7026,0.2538 -1.0815,0.3421 -0.4487,0.103 -0.754,0.3274 -1.2249,0.4267 -0.2943,0.0589 -0.5922,0.1141 -0.8902,0.1729 H 37.644 c -0.2685,0.0331 -0.5297,0.1324 -0.7835,0.2134 -0.1508,0.0699 -0.298,0.1435 -0.4487,0.2134 -0.3385,0.1325 -0.6731,0.2207 -0.9822,0.3716 -0.1434,0.0662 -0.2464,0.2354 -0.4377,0.2612 -0.3053,0.0367 -1.4272,-0.1693 -1.6442,-0.3311 -0.0552,-0.0772 -0.1067,-0.1508 -0.1618,-0.228 -0.0257,-0.0479 -0.1471,-0.3017 -0.0478,-0.3237 0.0037,0.0147 0.0074,0.0331 0.011,0.0478 0.6842,-0.103 1.4015,-0.2023 2.0746,-0.3495 -0.0074,-0.0294 -0.0147,-0.0626 -0.0184,-0.092 0.0515,0.0074 0.0993,0.0111 0.1508,0.0185 0.1655,-0.0515 0.3348,-0.103 0.5039,-0.1582 0.114,-0.1398 0.4157,-0.3348 0.6033,-0.3752 C 36.5737,10.415 36.8017,9.8559 36.7171,9.4512 36.7613,9.3445 36.7282,9.1128 36.6472,9.0208 36.4964,8.8443 36.1874,8.8037 35.9851,8.7118 35.5216,8.4984 34.9809,8.0349 34.7823,7.5677 34.7529,7.5015 34.7639,7.3838 34.8522,7.3617 c 0.228,0.1472 0.618,0.1655 0.8939,0.0589 0.0441,-0.0184 0.0441,-0.0221 0.0551,0.0294 0.39,-0.2244 0.8203,-0.5886 1.2691,-0.71 0.0589,-0.0184 0.092,0 0.0772,-0.0699 0.3568,-0.1692 0.5333,-0.3311 0.8056,-0.5629 0.0037,0.0147 0.0074,0.0331 0.0111,0.0478 C 37.9936,6.1476 38.0267,6.1403 38.0561,6.1366 38.0524,6.1219 38.0488,6.1072 38.0451,6.0888 38.2216,6.0005 38.3982,5.9159 38.5748,5.8276 V 5.8239 Z"
     style="fill:#c2dbf5;fill-rule:evenodd;stroke-width:0px;stroke:none;stroke-opacity:1;fill-opacity:1"
     id="path13" /><path
     d="m 44.0002,0 c 12.1165,0 23.1183,4.9443 31.0896,12.9126 7.9709,7.9719 12.9103,18.9753 12.9103,31.0933 0,12.118 -4.9436,23.1213 -12.9103,31.0933 C 67.1186,83.0712 56.1167,88.0118 44.0002,88.0118 31.8837,88.0118 20.882,83.0675 12.911,75.0992 4.94,67.1272 0,56.1276 0,44.0059 0,31.8842 4.9437,20.8846 12.9109,12.9126 20.8819,4.9406 31.8838,0 44.0002,0 Z m 0,0.5371 c -11.9693,0 -22.835,4.8818 -30.7103,12.7581 -7.8754,7.8764 -12.7565,18.7435 -12.7565,30.7144 0,11.9709 4.8812,22.838 12.7565,30.7106 7.8753,7.8726 18.7411,12.7581 30.7103,12.7581 11.9692,0 22.8351,-4.8818 30.7105,-12.7581 7.8711,-7.8726 12.756,-18.7398 12.756,-30.7106 0,-11.9708 -4.8807,-22.838 -12.756,-30.7143 C 66.8353,5.4189 55.9694,0.5371 44.0002,0.5371 Z"
     style="fill:#c2dbf5;stroke-width:0px;stroke:none;stroke-opacity:1;fill-opacity:1"
     id="path14" /><path
     d="m 44.0002,14.2002 c 8.2064,0 15.6587,3.3477 21.0585,8.7482 5.3995,5.4005 8.7472,12.8501 8.7472,21.0612 0,8.2111 -3.3477,15.6607 -8.7472,21.0612 -5.3961,5.3968 -12.8484,8.7445 -21.0585,8.7445 -8.2101,0 -15.6586,-3.3477 -21.0584,-8.7445 -5.3998,-5.4005 -8.7471,-12.8501 -8.7471,-21.0612 0,-8.2111 3.3473,-15.6607 8.7471,-21.0612 5.3961,-5.3968 12.8484,-8.7482 21.0584,-8.7482 z m 0,0.5371 c -8.0592,0 -15.3754,3.2888 -20.6759,8.59 -5.3005,5.3012 -8.5889,12.622 -8.5889,20.6823 0,8.0603 3.2884,15.3774 8.5889,20.6786 5.3005,5.3012 12.6167,8.59 20.6759,8.59 8.0592,0 15.3754,-3.2888 20.6759,-8.59 5.3007,-5.3012 8.5889,-12.6183 8.5889,-20.6786 0,-8.0603 -3.2882,-15.3774 -8.5889,-20.6823 -5.3005,-5.3012 -12.6167,-8.59 -20.6759,-8.59 z"
     style="fill:#c2dbf5;stroke-width:0px;stroke:none;stroke-opacity:1;fill-opacity:1"
     id="path15" /><path
     d="M 37.5778,37.465 H 30.4823 C 24.2807,35.7801 24.6669,24.9092 31.9831,24.9092 h 10.5237 l 1.3683,-4.1129 1.681,4.1129 h 11.057 c 6.6468,1.2913 7.1949,10.7017 0.2833,12.5558 h -6.4849 l 2.9095,9.9292 7.5369,-0.2833 c 6.7791,2.2146 6.3083,12.4638 -0.2796,12.9052 L 45.4126,59.9609 43.9339,56.8634 42.5398,59.9057 28.6026,60.0161 C 20.2602,60.2442 20.3448,48.0784 27.992,47.3574 l 6.4886,-0.2943 3.1045,-9.5943 -0.0074,-0.0037 z m 2.8434,18.5008 H 28.0547 c -2.2843,0.0367 -2.3983,-4.9002 -0.0846,-4.7751 l 9.4459,-0.1766 6.4371,-17.1542 6.6872,17.3309 h 9.9352 c 2.4093,0.3605 2.4498,4.3005 0,4.7751 h -13.025 c -0.423,0 -3.8475,-10.6097 -3.8475,-10.6097 l -3.1817,10.6097 z m 8.1107,-22.4592 -1.0078,-5.0841 h 8.9015 c 1.3169,0.4084 1.5523,4.7199 -0.5922,5.0841 z m -8.9052,0.1876 1.0078,-5.0841 h -8.9016 c -1.3168,0.4084 -1.5523,4.7199 0.5922,5.0841 h 7.3015 z"
     style="fill:#c2dbf5;fill-rule:evenodd;stroke-width:0px;stroke:none;stroke-opacity:1;fill-opacity:1"
     id="path16" /><path
     d="m 36.1102,66.0824 0.2207,0.0478 -0.9085,2.8437 c -0.0442,0.1324 -0.0589,0.2244 -0.0515,0.2649 0.0073,0.0441 0.033,0.0772 0.0735,0.1104 0.0404,0.0294 0.1324,0.0589 0.2722,0.0919 l 0.2906,0.0626 -0.0663,0.206 -1.9458,-0.4303 0.0662,-0.2061 0.32,0.0699 c 0.1398,0.0294 0.2355,0.0404 0.2907,0.0294 0.0515,-0.0111 0.0993,-0.0331 0.1397,-0.0736 0.0405,-0.0404 0.0773,-0.1177 0.1177,-0.2391 l 0.7467,-2.3361 -0.7467,-0.1655 0.0662,-0.2098 c 0.423,0.0405 0.7945,0.0185 1.1182,-0.0699 l -0.0037,0.0037 z"
     style="fill:#c2dbf5;stroke-width:0px;stroke:none;stroke-opacity:1;fill-opacity:1"
     id="path17" /><path
     d="M 39.0602,70.8648 39.108,70.611 c 0.5039,0.0699 0.9196,0.0662 1.2506,-0.0148 0.3311,-0.0772 0.5922,-0.2317 0.7835,-0.4598 0.1913,-0.2281 0.3274,-0.5224 0.4156,-0.8866 -0.1287,0.125 -0.2538,0.2207 -0.3788,0.2832 -0.1214,0.0626 -0.2612,0.103 -0.412,0.1251 -0.1545,0.0221 -0.3126,0.0184 -0.4819,-0.0073 -0.2759,-0.0405 -0.5076,-0.1324 -0.7026,-0.2759 -0.1949,-0.1398 -0.3347,-0.3127 -0.4193,-0.5187 -0.0846,-0.2023 -0.103,-0.4304 -0.0589,-0.6805 0.0735,-0.401 0.2685,-0.6953 0.5775,-0.8829 0.3458,-0.2061 0.754,-0.2722 1.2286,-0.2024 0.3421,0.0515 0.618,0.1582 0.8276,0.3201 0.2096,0.1619 0.3604,0.3863 0.4487,0.6658 0.0883,0.2833 0.0956,0.6144 0.0257,0.997 -0.0699,0.3826 -0.206,0.7101 -0.4046,0.9896 -0.1986,0.2796 -0.445,0.4893 -0.7356,0.6291 -0.2907,0.1434 -0.5959,0.2208 -0.9159,0.2354 -0.32,0.0146 -0.6069,0 -0.8571,-0.0368 l -0.2354,-0.0367 -0.0037,0.011 z m 1.4161,-1.4788 c 0.2869,0.0441 0.5444,-0.0185 0.7687,-0.1876 0.2244,-0.1693 0.3605,-0.3937 0.412,-0.6695 0.0367,-0.195 0.0257,-0.3863 -0.0368,-0.5665 -0.0589,-0.1803 -0.1545,-0.3201 -0.2832,-0.4231 -0.1251,-0.103 -0.2833,-0.1655 -0.4635,-0.1949 -0.2759,-0.0405 -0.526,0.0184 -0.7467,0.1802 -0.2207,0.1618 -0.3605,0.4047 -0.4193,0.721 -0.0552,0.3054 -0.0111,0.5629 0.136,0.7688 0.1472,0.2061 0.3568,0.3311 0.629,0.3716 h 0.0037 z"
     style="fill:#c2dbf5;stroke-width:0px;stroke:none;stroke-opacity:1;fill-opacity:1"
     id="path18" /><path
     d="m 44.8168,66.9727 1.898,-0.1104 c 0.1141,-0.0074 0.1876,-0.0184 0.2097,-0.0294 0.0331,-0.0184 0.0478,-0.0589 0.0515,-0.1214 l 0.2244,-0.0147 0.0589,0.5812 -2.1077,0.1251 0.0442,0.9748 c 0.0846,-0.0294 0.1949,-0.0515 0.3273,-0.0736 0.1729,-0.0294 0.3237,-0.0478 0.4598,-0.0552 0.3385,-0.0184 0.64,0.0184 0.9049,0.1141 0.2612,0.0956 0.4709,0.2354 0.6217,0.4194 0.1509,0.1839 0.2391,0.3973 0.2612,0.6327 0.0367,0.3679 -0.0846,0.688 -0.3642,0.9602 -0.2795,0.2722 -0.6547,0.423 -1.1256,0.4488 -0.2722,0.0147 -0.5223,-0.0148 -0.7541,-0.0883 -0.228,-0.0772 -0.4156,-0.1839 -0.5517,-0.3201 -0.1398,-0.1361 -0.2133,-0.2612 -0.2244,-0.3679 -0.0073,-0.07 0.0148,-0.1361 0.0626,-0.1913 0.0478,-0.0552 0.1141,-0.0846 0.195,-0.092 0.0846,-0.0036 0.1618,0.0221 0.2354,0.0846 0.0404,0.0294 0.0919,0.1104 0.1545,0.2354 0.0883,0.1766 0.2024,0.3017 0.3494,0.3789 0.1435,0.0772 0.3163,0.1141 0.5187,0.0994 0.2023,-0.0111 0.3789,-0.0626 0.5297,-0.1509 0.1508,-0.0882 0.2648,-0.2134 0.3421,-0.3679 0.0772,-0.1545 0.1067,-0.3237 0.0883,-0.5077 -0.0184,-0.195 -0.0846,-0.3642 -0.1987,-0.5077 -0.114,-0.1435 -0.2648,-0.2539 -0.4598,-0.3274 -0.1912,-0.0736 -0.4193,-0.0993 -0.6841,-0.0846 -0.1618,0.0111 -0.3311,0.0331 -0.5113,0.0772 -0.1802,0.0405 -0.3347,0.092 -0.4635,0.1472 l -0.0809,-1.8725 -0.011,0.0037 z"
     style="fill:#c2dbf5;stroke-width:0px;stroke:none;stroke-opacity:1;fill-opacity:1"
     id="path19" /><path
     d="M 50.7205,67.267 50.4336,67.3 c -0.0441,-0.1949 -0.0478,-0.3642 -0.011,-0.5077 0.0478,-0.1949 0.1508,-0.3642 0.3126,-0.5077 0.1618,-0.1434 0.3715,-0.2501 0.6253,-0.3164 0.2502,-0.0662 0.4856,-0.0809 0.7063,-0.0478 0.2207,0.0331 0.4046,0.1067 0.5518,0.2171 0.1471,0.1104 0.2501,0.2465 0.3053,0.4047 0.0515,0.1398 0.0589,0.2722 0.0257,0.401 -0.0331,0.1287 -0.1067,0.2575 -0.2207,0.3825 -0.0809,0.0883 -0.1949,0.1766 -0.3421,0.2649 0.1839,-0.0221 0.3421,-0.0221 0.4709,0 0.2097,0.0367 0.3972,0.1177 0.5554,0.2391 0.1582,0.1214 0.2685,0.2722 0.3347,0.4525 0.103,0.2869 0.0589,0.5738 -0.1361,0.8645 -0.1949,0.2906 -0.5076,0.4929 -0.9416,0.6033 -0.4267,0.1104 -0.824,0.103 -1.1955,-0.0331 -0.3089,-0.1141 -0.4965,-0.2649 -0.5628,-0.4451 -0.0257,-0.07 -0.0221,-0.1361 0.0111,-0.1987 0.0331,-0.0625 0.0846,-0.103 0.1618,-0.1214 0.0809,-0.0221 0.1655,-0.0111 0.2428,0.0331 0.0441,0.0257 0.1104,0.0956 0.1949,0.2097 0.1214,0.1619 0.2685,0.2686 0.4414,0.3237 0.1728,0.0552 0.3641,0.0588 0.5702,0.0036 0.1839,-0.0478 0.3384,-0.1287 0.4561,-0.2427 0.1213,-0.1141 0.1949,-0.2502 0.2317,-0.4084 0.0368,-0.1582 0.0221,-0.3201 -0.0368,-0.4856 -0.0478,-0.1324 -0.1213,-0.2428 -0.2206,-0.3311 -0.0994,-0.0882 -0.2207,-0.1545 -0.3568,-0.1986 -0.1067,-0.0331 -0.2317,-0.0442 -0.3752,-0.0331 -0.1435,0.0111 -0.2685,0.0331 -0.3752,0.0589 l -0.2611,0.0699 -0.092,-0.2538 0.1655,-0.0442 c 0.1655,-0.0441 0.3163,-0.103 0.4561,-0.1765 0.1361,-0.0736 0.2317,-0.1802 0.2832,-0.3164 0.0479,-0.1361 0.0479,-0.2722 0,-0.4158 -0.0441,-0.1214 -0.114,-0.2244 -0.2133,-0.3053 -0.0993,-0.0809 -0.217,-0.1361 -0.3604,-0.1583 -0.1435,-0.0257 -0.2943,-0.0184 -0.4561,0.0258 -0.1582,0.0404 -0.2906,0.1103 -0.4009,0.2023 -0.1104,0.092 -0.1839,0.1987 -0.2281,0.3201 -0.0441,0.1178 -0.0515,0.2649 -0.0257,0.4415 l -0.0037,-0.0037 z"
     style="fill:#c2dbf5;stroke-width:0px;stroke:none;stroke-opacity:1;fill-opacity:1"
     id="path20" /><path
     d="m 81.6845,23.6142 c -0.0142,0.3054 -0.7464,1.2655 -0.9602,1.5267 -0.0621,0.0331 -0.125,0.0663 -0.187,0.1031 0.0293,0.1729 -0.0411,0.3016 -0.1878,0.401 -0.3455,0.2427 -0.9636,0.5297 -1.122,-0.0516 -0.0621,-0.2244 0.1182,-0.8535 0.0662,-0.938 0.151,-0.1361 0.3019,-0.2686 0.4562,-0.4047 0.2063,-0.092 0.4159,-0.1803 0.6214,-0.2722 0.5703,-0.2465 0.6701,-0.5077 1.3133,-0.3643 z m 2.0638,4.8414 c 0.0923,0.2686 0.2575,0.5444 0.2793,0.813 0.052,0.5556 -0.3673,1.2251 -1.0005,1.0742 -0.1434,-0.0883 -0.2834,-0.1765 -0.4268,-0.2649 -0.3749,-0.2428 -0.717,-0.4745 -1.0483,-0.802 -0.1761,-0.1765 -0.2902,-0.4488 -0.4486,-0.629 -0.125,-0.1031 -0.2499,-0.2061 -0.3749,-0.3091 -0.0151,0.0405 -0.0184,0.0589 0.0076,0.0993 0.0109,0.0479 0.0184,0.0957 0.0293,0.1398 0.0772,0.0074 0.2902,0.0478 0.3346,0.1178 -0.0151,0.0073 -0.026,0.0147 -0.0403,0.0221 0.3086,0.4525 0.4445,1.3023 0.3858,1.7953 -0.1065,0.2575 -0.2172,0.5187 -0.3237,0.7762 -0.0805,0.1876 -0.1694,0.4488 -0.3128,0.5923 -0.1946,0.195 -0.4814,0.2465 -0.6986,0.3237 -0.1652,0.0588 -0.3346,0.1692 -0.5006,0.1729 -0.7019,0.0111 -1.4382,-0.6144 -1.7208,-1.3096 -0.0184,-0.0515 -0.0226,-0.2023 -0.0738,-0.1693 -0.0075,-0.0147 -0.0151,-0.0257 -0.0218,-0.0404 -0.1367,0.103 -0.3061,0.3201 -0.4897,0.3606 -0.3162,0.0699 -0.7505,-0.1619 -1.0701,-0.1913 -0.3572,-0.0331 -0.7061,0.3053 -0.6516,0.6695 0.0738,0.1104 0.1434,0.2244 0.2214,0.3347 0.1174,0.0331 0.2935,0.1435 0.364,0.2612 0.1543,0.2649 0.3975,0.9675 0.3824,1.2288 -0.0369,0.5812 -0.7103,1.0741 -1.1036,0.4083 -0.0512,-0.2134 -0.1031,-0.4267 -0.1543,-0.6438 -0.0293,-0.1471 0.0034,-0.3053 -0.052,-0.4562 -0.0293,-0.0882 -0.1392,-0.2317 -0.2021,-0.2906 -0.0369,-0.0367 -0.0847,-0.1104 -0.1392,-0.0772 0.0293,0.0515 0.0361,0.0294 -0.0151,0.0626 -0.1987,0.0294 -0.4705,0.2428 -0.6323,0.3568 -0.3237,0.2244 -0.8319,0.4452 -1.1925,0.3164 -0.2457,-0.092 -0.4856,-0.2281 -0.6399,-0.4709 -0.1174,-0.1876 -0.0847,-0.4636 -0.1392,-0.6695 -0.0704,-0.1656 -0.14,-0.331 -0.2138,-0.5003 -0.0772,-0.2207 -0.1878,-1.0007 0.0478,-1.1405 0.125,0.1693 0.2499,0.3422 0.3757,0.5114 0.1174,0.1251 0.2348,0.2502 0.3564,0.3752 0.0327,0.0074 0.0629,0.0148 0.0218,0.0405 0.0151,0.0257 0.0294,0.0515 0.0478,0.0772 0.0151,-0.0074 0.026,-0.0147 0.0411,-0.0221 0.0293,0.0515 0.0109,0.0478 0.0621,0.0147 0.0293,0.0515 0.0369,0.0294 -0.0143,0.0626 0.073,0.0956 0.1468,0.195 0.2239,0.2906 0.2499,0.1141 0.379,0.3017 0.6767,0.3164 0.0444,0 0.0369,0 0.0629,0.0405 0.1099,-0.103 0.3346,-0.195 0.3422,-0.3606 V 31.7372 C 74.299,31.7005 74.2914,31.6673 74.2806,31.6305 74.1296,31.178 73.681,30.9095 73.4562,30.479 73.3606,30.2215 73.2616,29.9676 73.166,29.7102 73.1291,29.552 73.0956,29.3938 73.0587,29.2357 c 0.0444,-0.0442 0.0889,-0.0883 0.1325,-0.1325 0.0076,0.0148 0.0151,0.0258 0.0226,0.0405 0.3011,0.1508 0.5107,0.4194 0.7019,0.7468 0.2398,0.1693 0.5812,0.894 0.7547,1.1883 0.1065,-0.0074 0.2943,0.1434 0.3715,0.0956 -0.0335,-0.1067 0.0805,-0.2649 0.1501,-0.3421 0.1769,-0.195 0.3539,-0.4304 0.6516,-0.5187 0.3455,-0.1067 1.1405,0.1619 1.4047,-0.2465 0.2281,-0.3531 -0.6063,-0.7504 -0.816,-0.8313 -0.1216,-0.0185 -0.2432,-0.0331 -0.3681,-0.0479 -0.0662,-0.033 -0.1325,-0.1508 -0.1107,-0.228 0.0478,-0.1802 1.0415,-0.4267 1.1807,-0.3863 0.2801,0.0772 0.6843,0.3458 0.8386,0.6107 0.2097,0.3532 0.0704,0.5886 0.1401,0.8793 0.0922,0.3862 0.9158,0.9417 1.247,1.0705 0.5115,0.1949 0.9602,-0.0331 1.2948,-0.4378 0.0109,-0.0111 0.1401,-0.1693 0.0403,-0.1141 0.0813,-0.1582 0.1727,-0.2869 0.1769,-0.4819 0.0142,-0.5849 -0.4898,-1.3943 -0.982,-1.7106 -0.239,-0.1545 -0.5266,-0.1545 -0.7841,-0.2538 -1.1807,-0.4599 -2.6299,-0.9933 -3.8911,-0.596 -0.0075,-0.0148 -0.0151,-0.0257 -0.0226,-0.0405 -0.2239,0.1214 -1.0885,0.3495 -1.2646,0.2318 -0.3312,-0.2207 -0.1736,-1.1772 0.1619,-1.3759 0.0587,-0.0331 0.1686,-0.0809 0.2055,-0.0147 0.1803,-0.2686 0.5887,-0.5041 0.868,-0.6695 0.1258,-0.1435 0.3757,0.103 0.4419,0.2134 0.1392,0.0367 0.4151,0.1251 0.5518,0.0441 0.0621,0.0074 0.125,0.0184 0.187,0.0257 0.644,0.0736 1.2545,0.4194 1.8281,0.6512 0.0847,0.033 0.2063,0.0699 0.2943,0.0147 -0.0075,0.0442 -0.0142,0.0626 -0.0553,0.0846 0.0151,0.0257 0.0302,0.0515 0.0478,0.0772 0.379,-0.0404 1.3795,0.6107 1.7217,0.8094 0.2801,0.1582 0.5887,0.2649 0.8646,0.4304 0.1694,0.1361 0.3422,0.2686 0.5115,0.4047 0.0621,0.0515 0.3271,0.1839 0.3053,0.1986 0.0294,0.0479 0.0252,0.0883 0.0847,0.0552 0.0512,0.0552 0.1023,0.1141 0.1543,0.1729 0.1065,-0.0294 0.3564,-0.0957 0.353,-0.2539 -0.0034,-0.0993 -0.3681,-0.526 -0.4227,-0.4929 -0.0554,0.0037 -0.1258,0.0552 -0.1618,-0.0074 -0.0185,-0.0589 -0.1845,-0.0515 -0.2247,-0.0257 -0.0738,-0.1619 -0.2683,-0.2869 -0.3824,-0.4121 -0.3279,-0.3679 0.0662,-0.7615 0.1727,-1.0705 0.0151,-0.0404 0.0847,-0.2501 0.1359,-0.1619 0.1543,0.0626 0.1987,0.3348 0.2759,0.4709 0.1107,0.0552 0.2021,0.2501 0.291,0.3421 0.2902,0.2906 0.7321,0.4966 0.9527,0.8718 0.2533,0.1398 0.3858,0.2539 0.6726,0.3385 l -0.0143,0.0037 z"
     style="fill:#c2dbf5;fill-rule:evenodd;stroke-width:0px;stroke:none;stroke-opacity:1;fill-opacity:1"
     id="path21" /><path
     d="m 55.2338,2.3508 c 0.1471,0.0846 0.3789,0.1582 0.4892,0.2759 0.1618,0.1729 0.1876,0.4782 0.2133,0.699 0.0221,0.2612 0.0404,0.5224 0.0588,0.7836 C 55.9804,4.3411 55.8296,4.628 55.7487,4.8267 55.6126,5.1541 55.5169,5.4705 55.3514,5.7501 55.208,5.9598 55.0608,6.1695 54.9174,6.3755 54.8769,6.438 54.5091,6.7581 54.6783,6.8059 54.6967,6.7434 54.704,6.7654 54.6452,6.747 55.1197,6.6219 55.5942,6.4968 56.0687,6.3718 56.4254,6.2283 56.7823,6.0885 57.1391,5.9451 57.8416,5.6986 58.5884,5.5735 59.2946,5.3013 59.5631,5.1836 59.8279,5.0622 60.0965,4.9445 60.2583,4.8452 60.4313,4.503 60.6189,4.481 c 0.2869,-0.0405 0.5443,0.3385 0.5959,0.5702 0.0404,0.1803 0.0367,0.4304 -0.1325,0.5518 -0.2648,0.1803 -0.7393,0.0699 -1.0446,0.1435 -0.3863,0.1104 -0.7688,0.2244 -1.155,0.3348 -0.4892,0.0993 -0.9748,0.1987 -1.464,0.298 -0.4524,0.1214 -0.9012,0.2649 -1.3683,0.3421 -0.0404,0.0074 -0.0588,0.0037 -0.0735,0.0552 -0.0331,0.0147 -0.0589,0.0331 -0.011,0.0442 -0.0037,0.0147 -0.0074,0.0331 -0.0148,0.0478 0.0148,0.0037 0.0331,0.0074 0.0478,0.0147 0.0736,-0.0184 0.2428,0.0221 0.2685,-0.0736 0.1324,0.0515 0.2612,0.103 0.3936,0.1508 0.3715,0.1508 0.5921,0.4157 0.8276,0.7027 0.0404,0.0478 0.1508,0.0993 0.1287,0.1692 -0.092,0.0883 -0.1839,0.1803 -0.2759,0.2686 -0.3752,0.2833 -0.8313,0.4451 -1.2469,0.6144 -0.2318,0.0919 -0.4598,0.1839 -0.6915,0.2759 -0.0405,0.0111 -0.0994,0.0185 -0.1177,0.0736 -0.0331,0.0147 -0.0589,0.0367 -0.0699,0.0772 0.2501,0.1949 0.4634,0.3568 0.8092,0.4709 0.0662,0.0221 0.0479,0.0074 0.0331,0.0626 0.0148,0.0037 0.0331,0.0074 0.0478,0.0147 -0.0073,0.0294 -0.0184,0.0626 -0.0257,0.092 -0.4524,-0.0074 -0.4965,0.6548 -0.7577,0.5812 -0.0037,0.0148 -0.0074,0.0331 -0.0148,0.0478 0.0478,0.0148 0.092,0.0257 0.1398,0.0405 -0.0184,0.0589 -0.0294,0.0404 0.0331,0.0589 0.0037,-0.0148 0.0073,-0.0294 0.011,-0.0442 0.0846,-0.0257 0.1729,-0.0515 0.2575,-0.0772 0.0735,-0.0478 0.1471,-0.206 0.2574,-0.1729 -0.0699,0.6511 -0.7173,0.9013 -1.0041,1.4126 -0.2796,0.4966 -0.3568,1.4126 -0.412,1.9129 -0.0148,0.1435 -0.0772,0.3274 -0.2097,0.3826 -0.2097,0.0883 -1.1476,-0.4562 -1.3978,-0.5592 -0.1067,-0.0257 -0.2133,-0.0478 -0.32,-0.0736 -0.0294,0.0294 -0.103,0.0699 -0.0257,0.0919 -0.0772,0.1361 -0.1214,0.3054 -0.2465,0.3974 -0.1692,0.1214 -0.3604,0.0147 -0.5407,-0.0405 -0.1582,-0.0404 -0.3126,-0.0772 -0.4671,-0.1178 -0.4819,-0.2869 -0.9122,-1.0889 -0.5555,-1.6297 0.0699,-0.1067 0.1913,-0.1802 0.3053,-0.0919 0.0846,0.0662 0.0772,0.2023 0.114,0.2906 0.1434,0.331 0.4561,0.6805 0.8165,0.7836 0.0074,-0.0294 0.0185,-0.0589 0.0257,-0.092 0.0148,0.0037 0.0294,0.0074 0.0478,0.0147 0.0148,-0.1251 0.1251,-0.2612 0.2612,-0.2244 0.4856,-0.1104 0.8165,0.1839 1.2543,-0.2244 0.0368,-0.0367 0.206,-0.2575 0.0809,-0.2943 0.0037,-0.0147 0.0074,-0.0294 0.0111,-0.0441 -0.081,-0.0111 -0.2207,-0.0405 -0.2907,-0.0957 -0.0919,-0.0736 -0.7356,-0.8424 -0.7099,-0.927 -0.0148,-0.0037 -0.0294,-0.0074 -0.0442,-0.0111 0.1177,-0.0551 0.8976,-0.1949 0.9086,-0.2391 0.0293,-0.0404 0.0588,-0.0809 0.0845,-0.1251 -0.1765,-0.1361 -0.4561,-0.3164 -0.3788,-0.6033 0.0662,-0.0148 0.2023,-0.0074 0.2243,-0.0846 0.0368,0.0552 0.0442,0.1104 0.1104,0.1287 0.0037,-0.0148 0.0074,-0.0294 0.0147,-0.0478 0.0148,0.0037 0.0331,0.0073 0.0479,0.0147 C 53.729,10.058 53.7069,10.069 53.7695,10.0874 53.7768,10.058 53.7879,10.0286 53.7952,9.9955 53.6775,9.8226 53.5892,9.4915 53.3611,9.4253 53.2985,9.3627 53.1661,9.223 53.0778,9.1973 53.0815,9.1788 53.0852,9.1679 53.0926,9.1494 54.1152,8.9839 55.1892,9.006 56.0021,8.2481 56.1161,8.1377 56.2596,8.0642 56.3479,7.928 56.4178,7.8213 56.381,7.6742 56.4141,7.5564 54.9243,7.2363 53.442,7.446 52.0883,7.7955 51.6101,7.9169 51.1577,8.2333 50.6354,8.1744 50.4036,8.1487 50.1057,7.9905 49.9696,7.8323 49.9144,7.7661 49.6607,7.251 49.6533,7.2474 49.6718,7.1849 49.6496,7.1959 49.7122,7.2143 c 0.1435,-0.0368 0.3715,0.0037 0.5297,0.0515 0.2685,-0.0294 0.537,-0.0625 0.8093,-0.0956 0.8424,-0.1508 1.6773,-0.3201 2.5417,-0.3642 0.0663,-0.0037 0.0993,0.011 0.1177,-0.0589 -0.0626,-0.0184 -0.0515,0 -0.0331,-0.0589 0.0589,-0.011 0.0993,0 0.1177,-0.0662 -0.0626,-0.0184 -0.0515,0 -0.0331,-0.0589 C 54.2366,6.14 54.9208,3.609 54.7773,2.9726 54.7625,2.9101 54.7589,2.5753 54.8251,2.5937 54.9391,2.476 55.0789,2.4024 55.2371,2.3619 l -0.0037,-0.011 z m 1.3426,1.7658 c 0.2575,0.2171 0.3458,0.493 0.7246,0.5996 0.1471,-0.0221 0.3604,0.0515 0.5186,0.0957 0.0809,0.0074 0.1618,0.0147 0.2428,0.0184 -0.0147,0.0589 -0.0037,0.0993 -0.0699,0.0809 -0.2133,0.0993 -0.4267,0.1987 -0.64,0.298 C 57.2679,5.2791 57.1833,5.3527 57.095,5.4263 56.8375,5.5183 56.124,5.0327 56.2122,4.7126 56.1901,4.4698 56.4109,4.2344 56.5764,4.1203 Z M 52.4419,3.9989 c 0.2207,0.1472 0.3348,0.4194 0.5996,0.5224 0.4009,0.1545 0.8902,-0.1067 1.2395,-0.0074 -0.2169,0.4194 -0.7173,0.6622 -1.0041,1.019 C 53.1629,5.669 53.0745,5.8456 52.9091,5.9265 52.7399,6.0038 52.4897,6.0332 52.3279,5.9008 51.9821,5.6139 51.9858,5.1246 51.9491,4.7236 51.9343,4.5581 51.8534,4.3778 51.8975,4.1939 c 0.0111,-0.0552 0.0331,-0.2354 0.1067,-0.217 0.0037,-0.0147 0.0074,-0.0294 0.0111,-0.0441 0.1435,0.0221 0.2832,0.0478 0.4267,0.0699 V 3.999 Z m 3.4282,8.6489 c 0.7026,0.2465 1.1293,0.5555 1.1109,1.306 -0.0037,0.0515 0.0073,0.0515 -0.0479,0.0368 -0.2721,0.3237 -1.166,0.8609 -1.5964,0.7431 0.2502,-0.5555 0.5554,-1.2067 0.4745,-1.8321 -0.0037,-0.033 -0.0589,-0.1361 0.0221,-0.1104 0.0148,-0.0478 0.0258,-0.0919 0.0405,-0.1397 z"
     style="fill:#c2dbf5;fill-rule:evenodd;stroke-width:0px;stroke:none;stroke-opacity:1;fill-opacity:1"
     id="path22" /><path
     d="m 6.1723,23.4855 c 0.4745,-0.4709 0.9159,0.1067 1.372,0.3826 0.331,0.2023 0.7761,0.0809 1.1255,0.2317 0.1692,0.0736 0.3201,0.1545 0.4709,0.2428 0.0662,0.0993 0.1361,0.2024 0.2023,0.3017 0.1692,0.2171 0.3385,0.4378 0.5076,0.6548 0.195,0.4268 0.3863,0.8572 0.5812,1.284 0.1986,0.3384 0.7319,0.7468 1.1071,0.9711 0.0479,0.0294 0.1031,0.0294 0.0626,0.0846 0.0257,0.0184 0.0515,0.0368 0.0772,0.0552 0.0294,-0.0368 0.0552,-0.0772 0.0846,-0.1141 -0.0404,-0.1876 -0.0809,-0.3716 -0.1213,-0.5555 -0.0516,-0.1508 -0.0994,-0.3054 -0.1509,-0.4562 -0.011,-0.1361 -0.0184,-0.2686 -0.0294,-0.4047 -0.0662,-0.2686 -0.1802,-0.5812 -0.1471,-0.8609 0.0073,-0.0625 0.0147,-0.033 -0.0331,-0.0699 C 11.2741,25.2033 11.2704,25.1664 11.2411,25.2033 11.0682,25.0157 10.8917,24.7839 10.6599,24.6184 10.4356,24.4565 10.156,24.3608 9.95,24.2137 9.961,24.199 9.9684,24.188 9.9794,24.1769 9.9646,24.1659 9.9537,24.1585 9.9389,24.1475 10.0787,24.0151 10.3325,23.8863 10.4024,23.6766 10.4833,23.4228 10.0456,22.5914 9.8139,22.4479 9.5012,22.3081 9.1922,22.1683 8.8759,22.0285 8.8869,22.0137 8.8943,22.0028 8.9053,21.9917 8.8905,21.9806 8.8796,21.9733 8.8648,21.9623 c 0.0663,-0.092 0.1324,-0.1802 0.195,-0.2722 0.0147,-0.1545 0.1177,-0.3384 0.217,-0.4856 0.6841,-1.019 1.692,-0.2097 1.6847,0.688 0,0.0257 -0.0257,0.2943 0.0404,0.2023 -0.0221,0.4194 -0.0735,1.1257 0.3311,1.4163 0.0441,0.1178 0.7283,0.3495 0.8976,0.4709 0.0184,-0.0257 0.0367,-0.0515 0.0552,-0.0772 0.0404,-0.0294 0.0808,-0.0589 0.1213,-0.0883 -0.125,-0.4745 -0.0294,-1.0374 -0.1067,-1.523 -0.0441,-0.2796 -0.2023,-0.5187 -0.1839,-0.8204 0,-0.0515 -0.0148,-0.2317 0.0515,-0.1876 0.0552,-0.1287 0.1141,-0.2575 0.1692,-0.3862 0.0294,-0.1214 0.0588,-0.2465 0.0845,-0.3715 0.2465,0.0699 0.4929,0.1361 0.7357,0.206 0.0956,0.0589 0.1545,0.1802 0.2023,0.2686 0.2649,0.4929 0.1546,0.7137 0.1546,1.2361 0,0.1876 0.0478,0.3789 0.0699,0.5629 0.0147,0.1545 0.0147,0.3458 0.1104,0.4745 0.2648,0.3606 0.9122,0.5665 1.2617,0.916 0.3421,0.3421 0.5333,0.802 0.8056,1.1882 0.1802,0.2576 0.4414,0.5997 0.7062,0.7984 0.2318,0.1434 0.4635,0.2869 0.6916,0.4304 0.6069,-0.2098 1.8906,0.401 1.3205,1.1882 -0.4009,-0.0184 -0.8386,0.2061 -1.2874,0.0736 -0.3715,-0.1067 -0.9012,-0.732 -1.2286,-0.9969 -0.2428,-0.1509 -0.4855,-0.3054 -0.7283,-0.4562 -0.3567,-0.2244 -0.6326,-0.5482 -0.9674,-0.791 -0.114,-0.0589 -0.2243,-0.1177 -0.3421,-0.1765 -0.0184,0.0257 -0.0367,0.0515 -0.0552,0.0772 0.0552,0.092 0.1766,0.2465 0.092,0.3605 0.0589,0.0074 0.1582,-0.0036 0.2097,0.0331 -0.114,0.3937 0.3863,0.7652 0.2685,1.2103 -0.0331,0.1287 -0.2648,0.2207 -0.3752,0.2539 -0.7872,0.2171 -1.1697,-0.3569 -1.5927,-0.894 -0.0662,-0.0993 -0.1361,-0.1987 -0.206,-0.2943 -0.011,0.0147 -0.0184,0.0257 -0.0294,0.0368 -0.0147,-0.0111 -0.0257,-0.0185 -0.0404,-0.0294 -0.092,0.2649 0.1067,0.6842 0.1582,0.9638 0.0735,0.4157 0.3126,0.9491 0.6069,1.2434 0.2318,0.2391 0.6437,0.3937 0.9085,0.5187 0.3311,0.1582 0.629,0.3605 0.9637,0.4378 0.3936,0.0919 0.9637,0.0845 1.3132,0.3347 -0.3494,1.2618 -2.0267,-0.2502 -2.5969,0.8351 -0.0441,0.0809 -0.1177,0.2686 -0.0184,0.3384 -0.2317,0.2207 -0.4892,0.3201 -0.7945,0.2061 -0.3679,-0.1361 -0.7872,-0.3606 -0.7468,-0.8314 0.0368,-0.1619 0.0736,-0.3274 0.1104,-0.4893 0.0257,-0.3789 -0.1324,-0.9013 -0.2721,-1.2472 -0.1177,-0.2906 -0.5407,-0.5555 -0.8166,-0.7541 -0.0552,0.0184 -0.1435,0.0736 -0.1987,0.033 -0.0367,0.0515 -0.0404,0.0294 0.0111,0.0663 0.0294,0.1986 0.1765,0.4121 0.1398,0.6107 -0.0589,0.2906 -0.5554,0.6401 -0.4598,0.9418 0.0956,0.3127 0.3274,0.5849 0.5187,0.8535 0.3384,0.4819 0.5812,1.0668 0.9784,1.512 0.2024,0.2244 0.5554,0.3568 0.6989,0.618 0.0626,0.1214 0.0846,0.3421 0.0552,0.4782 -0.0294,0.1434 -0.1435,0.3237 -0.2832,0.3899 -0.2759,0.1287 -1.2948,-0.1104 -1.5266,-0.3384 C 10.7816,32.767 10.6896,32.5205 10.5683,32.3329 10.5389,32.2888 10.5462,32.2005 10.4911,32.16 10.3771,32.1196 9.7554,31.4647 9.7885,31.4169 9.737,31.3801 9.7591,31.3765 9.7222,31.428 9.4022,31.0233 8.7842,30.6186 8.2803,30.5855 8.0081,30.5671 7.7249,30.6444 7.4453,30.637 c -0.0478,0 -0.2758,0.0074 -0.2207,-0.0736 -0.0993,-0.493 0.4635,-1.409 0.8534,-1.7953 0.1471,-0.1104 0.2979,-0.2208 0.4487,-0.3311 0.011,0.0074 0.0257,0.0185 0.0367,0.0257 0.092,0.0552 0.1876,0.1141 0.2796,0.1729 0.1435,0.0736 0.3348,0.1656 0.4304,0.3017 0.4598,0.6768 -0.2317,0.7357 -0.1177,1.2397 0.0552,0.2502 0.3605,0.5151 0.5334,0.7137 0.2833,0.331 0.5407,0.7137 0.8498,1.0411 0.1545,0.1693 0.4119,0.3237 0.5848,0.0846 -0.114,-0.2281 -0.1214,-0.5261 -0.1802,-0.7836 -0.1067,-0.4525 -0.2685,-1.1073 -0.5407,-1.4863 -0.0294,-0.0404 -0.1582,-0.1839 -0.1251,-0.2244 -0.0515,-0.0368 -0.0478,-0.0148 -0.011,-0.0663 -0.0331,0.0037 -0.0663,0.0111 -0.1067,-0.0184 0,0 0.0294,-0.1214 -0.0111,-0.0663 C 9.9798,29.3527 9.7737,29.3381 9.6119,29.2203 9.6376,28.9959 9.7443,28.7678 9.7628,28.5397 9.7738,28.3632 9.7076,28.1903 9.7039,28.0174 9.7002,27.7488 9.7995,27.2412 9.7076,26.991 9.531,26.5018 8.891,26.2001 8.4533,25.8616 7.9567,25.4606 7.4601,25.0633 6.9598,24.6623 6.6582,24.4158 6.5736,24.1289 6.4007,23.8346 6.3198,23.7169 6.2352,23.5992 6.1506,23.4814 l 0.0221,0.0037 z M 5.455,28.1502 c 0.1986,-0.1839 0.6804,-0.6401 0.9416,-0.6033 0.1067,0.0184 0.32,0.1214 0.3863,0.2207 0.1728,0.2759 0.2906,1.2361 0.0846,1.5194 C 6.7608,29.2061 6.6284,29.0662 6.496,29.0405 6.1024,28.9669 5.6095,29.8535 5.238,29.5849 5.2527,29.32 5.2049,28.6542 5.3593,28.4371 c 0.0148,0.0111 0.0257,0.0185 0.0368,0.0294 0.0184,-0.1067 0.033,-0.2097 0.0515,-0.3164 H 5.455 Z"
     style="fill:#c2dbf5;fill-rule:evenodd;stroke-width:0px;stroke:none;stroke-opacity:1;fill-opacity:1"
     id="path23" /><path
     d="m 71.4334,12.2173 c 0.1359,0.1839 0.2717,0.3679 0.4042,0.5518 -0.1099,0.1913 -0.3237,0.3606 -0.4705,0.5371 -0.1694,0.2097 -0.3421,0.423 -0.5115,0.6291 -0.3128,0.2501 -0.629,0.4966 -0.9417,0.7468 -0.2499,0.1729 -0.5476,0.3237 -0.7799,0.5481 -0.0662,0.0809 -0.1325,0.1619 -0.2021,0.2428 -0.0218,0.0589 0.0109,0.1288 -0.0327,0.1803 0.2684,0.1582 0.5996,0.2759 0.842,0.4892 0.0587,0.0148 0.1174,0.0809 0.1694,0.0221 0.364,0.3421 0.9418,0.6107 1.3753,0.732 0.1543,0.0442 0.2985,-0.0441 0.4453,0.0368 0.39,0.1986 0.8721,0.802 0.53,1.1882 -0.4009,-0.1655 -0.821,-0.5003 -1.1958,-0.7394 -0.5627,-0.3605 -1.1439,-0.6254 -1.7325,-0.8645 -0.3019,-0.1251 -0.7321,-0.3642 -1.0701,-0.3016 -0.2356,0.0404 -0.4159,0.331 -0.5996,0.5077 -0.6954,0.6585 -1.729,1.6481 -2.6596,1.5708 -0.1987,-0.0184 -0.4414,-0.092 -0.6143,-0.2207 -0.1545,-0.1177 -0.6548,-0.8681 -0.6253,-1.0558 0.0294,-0.2061 0.3016,-0.3311 0.4341,-0.4893 0.0442,-0.0552 0.2391,-0.3606 0.3053,-0.3054 0.0846,-0.033 0.1545,-0.0221 0.2428,0.0037 0.5517,0.1324 0.9563,-0.0736 1.4419,-0.2795 0.1287,-0.0442 0.2538,-0.0846 0.3826,-0.1288 0.0367,-0.0221 0.2023,-0.0699 0.1324,-0.1324 -0.1361,-0.3421 -0.5959,-0.4819 -0.835,-0.7799 -0.1766,-0.2207 -0.4451,-1.4016 -0.1876,-1.5745 0.3494,-0.2354 1.2028,1.2987 1.4088,1.4826 0.1839,0.0589 0.3124,0.2612 0.5153,0.1361 0.0109,0.011 0.0252,0.0221 0.0361,0.0294 0.317,-0.2502 0.6298,-0.504 0.9459,-0.7542 0.2868,-0.195 0.5736,-0.39 0.8604,-0.5849 0.353,-0.3274 0.7061,-0.6512 1.0558,-0.9786 0.1325,-0.1287 0.2574,-0.3715 0.4084,-0.4451 0.1434,-0.0736 0.364,-0.0037 0.5224,-0.0074 v 0.0074 z m -3.3988,5.8566 c 0.6726,0.7725 1.0114,2.314 0.0696,3.0461 -0.2021,0.1545 -0.3858,0.2759 -0.6398,0.228 -1.0227,-0.1876 -0.3422,-2.1153 -0.1032,-2.7076 0.052,-0.1214 0.026,-0.2906 0.1359,-0.401 0.1367,-0.1398 0.3681,-0.1141 0.5375,-0.1656 z"
     style="fill:#c2dbf5;fill-rule:evenodd;stroke-width:0px;stroke:none;stroke-opacity:1;fill-opacity:1"
     id="path24" /><path
     d="m 16.6665,14.5166 c 0.0772,-0.0368 0.2097,-0.1141 0.2538,-0.0368 0.2133,0.1288 0.3863,0.3237 0.5885,0.4672 0.1803,0.1287 0.4194,0.1324 0.607,0.2465 0.206,0.1251 0.9747,0.8387 0.9711,1.0852 -0.0074,0.3532 -0.3016,0.3201 -0.4783,0.5519 -0.1287,0.1655 -0.114,0.4047 -0.1471,0.5996 -0.0148,0.0772 -0.0626,0.2318 -0.0221,0.3091 -0.195,-0.0074 -0.3458,-0.1693 -0.4672,-0.3311 -0.206,-0.2722 -0.2428,-0.721 -0.3715,-1.0153 -0.1508,-0.1839 -0.298,-0.3679 -0.445,-0.5518 -0.1435,-0.184 -0.5076,-1.1037 -0.4892,-1.3244 z m 5.9074,-1.913 c 0.2391,-0.103 0.5407,-0.2943 0.7798,-0.2722 0.1177,0.011 0.206,0.1104 0.2722,0.2134 0.2502,0.3825 0.1067,0.8755 -0.2759,1.1 0.0074,0.0147 0.0184,0.0294 0.0257,0.0404 0.1324,0.0074 0.3274,0.0883 0.3973,0.2097 0.206,0.2391 0.2832,0.6034 0.2869,0.8756 0,0.1545 -0.0442,0.3899 0.0441,0.5371 0.0148,-0.0074 0.0294,-0.0185 0.0405,-0.0221 0.0073,0.0148 0.0184,0.0294 0.0257,0.0405 0.0882,-0.0736 0.423,-0.3201 0.4304,-0.3054 0.0257,-0.0147 0.0552,-0.0331 0.0809,-0.0478 -0.0074,-0.0147 -0.0148,-0.0257 -0.0257,-0.0404 0.1287,-0.1325 0.1876,-0.3422 0.3458,-0.4489 0.434,-0.2906 1.5927,-0.4488 1.692,0.2759 -0.0185,0.0809 -0.0331,0.1619 -0.0516,0.2428 -0.1876,0.6732 -0.9563,0.7357 -1.5118,0.9528 -0.0478,0.0185 -0.2281,0.0699 -0.1876,0.1398 -0.0957,0.2465 -0.3237,0.3164 -0.5297,0.504 -0.0809,0.0883 -0.1582,0.1766 -0.2428,0.2649 -0.3752,0.3458 -0.9196,0.7615 -1.4088,0.9896 -0.2097,0.0994 -0.4597,0.0111 -0.6069,0.0957 -0.0257,-0.0405 -0.0478,-0.0809 -0.0735,-0.1251 0.0589,-0.1361 0.0919,-0.7174 0.206,-0.7836 0.3348,-0.0221 0.6143,-0.3054 0.7357,-0.5812 0.0294,-0.0736 0.0294,-0.1987 0.1103,-0.2428 -0.0919,-0.1067 -0.0515,-0.2759 -0.136,-0.4194 0.0184,-0.0699 -0.0037,-0.2171 0.0699,-0.2612 -0.4819,-0.3384 -0.298,-1.1404 -0.9527,-0.3936 -0.0773,0.0846 -0.298,0.4267 -0.2355,0.5371 -0.1397,0.0404 -0.2795,0.0809 -0.4193,0.1214 -0.2796,0.0294 -0.6548,-0.1693 -0.8387,-0.3679 -0.0735,-0.0074 -0.1728,-0.0809 -0.2243,-0.1472 -0.0184,-0.0846 -0.0368,-0.1655 -0.0589,-0.2501 0.1986,-0.0442 0.4598,0.0037 0.6547,-0.1104 0.2097,-0.1214 0.309,-0.4304 0.4009,-0.6291 0.2355,-0.5077 0.5334,-1.1882 1.0631,-1.501 0.0478,-0.0478 0.0956,-0.0919 0.1398,-0.1361 -0.0074,-0.0147 -0.0148,-0.0257 -0.0258,-0.0404 l 0.0037,-0.0148 z m -4.0277,5.4042 c 0.1213,0.0037 0.217,0.0699 0.32,0.114 0.0919,0.0294 0.1876,0.0626 0.2795,0.0957 0.1655,0.0846 0.2502,0.2795 0.3458,0.4525 0.3053,0.5629 0.6622,0.8682 1.2727,0.6549 0.0662,-0.0221 0.3936,-0.1619 0.3568,-0.2281 0.3126,-0.3458 0.3936,-1.122 0.1545,-1.5304 0.0478,-0.0809 0.0809,-0.2134 0.1728,-0.2686 0.0589,0.39 0.1214,0.7762 0.1803,1.1662 0.0699,0.5775 0.3052,1.0668 -0.1251,1.5745 -0.1287,0.0956 -0.2538,0.195 -0.3825,0.2943 -0.1509,0.1141 -0.3936,0.3311 -0.5922,0.3899 -0.2648,0.0772 -0.5444,-0.0772 -0.7357,-0.2538 -0.0993,-0.092 -0.1765,-0.2612 -0.2538,-0.39 -0.3605,-0.6144 -1.0446,-1.3648 -1.0005,-2.0711 z"
     style="fill:#c2dbf5;fill-rule:evenodd;stroke-width:0px;stroke:none;stroke-opacity:1;fill-opacity:1"
     id="path25" /><path
     d="m 38.5747,5.8236 c 0.2685,-0.0147 0.949,-0.2391 1.0704,0.0736 0.0515,0.1361 -0.0626,0.3348 -0.1508,0.4304 -0.4304,0.4341 -1.4235,0.8572 -1.6774,1.4495 -0.0956,0.2244 0.4487,0.7248 0.5113,1.0669 0.0809,0.4488 -0.3126,0.9087 -0.4819,1.2949 -0.0368,0.0809 -0.1104,0.2135 -0.0883,0.3091 0.1398,-0.0441 0.6585,-0.1178 0.6327,-0.2354 0.0147,-0.0037 0.0331,-0.0074 0.0478,-0.0111 0.114,-0.0074 0.2244,-0.0147 0.3384,-0.0221 0.0846,-0.0883 0.2943,-0.309 0.4157,-0.3348 0.0037,0.0148 0.0074,0.0331 0.011,0.0479 0.5407,-0.3348 1.3316,-0.7137 1.9128,-0.2355 0.0809,0.1141 0.1618,0.2281 0.2391,0.3422 0.1287,0.1508 0.2097,0.412 0.0257,0.5665 -0.2722,0.2244 -0.7026,0.2538 -1.0815,0.3421 -0.4487,0.103 -0.754,0.3274 -1.2249,0.4267 -0.2943,0.0589 -0.5922,0.1141 -0.8902,0.1729 H 37.644 c -0.2685,0.0331 -0.5297,0.1324 -0.7835,0.2134 -0.1508,0.0699 -0.298,0.1435 -0.4487,0.2134 -0.3385,0.1325 -0.6731,0.2207 -0.9822,0.3716 -0.1434,0.0662 -0.2464,0.2354 -0.4377,0.2612 -0.3053,0.0367 -1.4272,-0.1693 -1.6442,-0.3311 -0.0552,-0.0772 -0.1067,-0.1508 -0.1618,-0.228 -0.0257,-0.0479 -0.1471,-0.3017 -0.0478,-0.3237 0.0037,0.0147 0.0074,0.0331 0.011,0.0478 0.6842,-0.103 1.4015,-0.2023 2.0746,-0.3495 -0.0074,-0.0294 -0.0147,-0.0626 -0.0184,-0.092 0.0515,0.0074 0.0993,0.0111 0.1508,0.0185 0.1655,-0.0515 0.3348,-0.103 0.5039,-0.1582 0.114,-0.1398 0.4157,-0.3348 0.6033,-0.3752 C 36.5737,10.415 36.8017,9.8559 36.7171,9.4512 36.7613,9.3445 36.7282,9.1128 36.6472,9.0208 36.4964,8.8443 36.1874,8.8037 35.9851,8.7118 35.5216,8.4984 34.9809,8.0349 34.7823,7.5677 34.7529,7.5015 34.7639,7.3838 34.8522,7.3617 c 0.228,0.1472 0.618,0.1655 0.8939,0.0589 0.0441,-0.0184 0.0441,-0.0221 0.0551,0.0294 0.39,-0.2244 0.8203,-0.5886 1.2691,-0.71 0.0589,-0.0184 0.092,0 0.0772,-0.0699 0.3568,-0.1692 0.5333,-0.3311 0.8056,-0.5629 0.0037,0.0147 0.0074,0.0331 0.0111,0.0478 C 37.9936,6.1476 38.0267,6.1403 38.0561,6.1366 38.0524,6.1219 38.0488,6.1072 38.0451,6.0888 38.2216,6.0005 38.3982,5.9159 38.5748,5.8276 V 5.8239 Z"
     style="fill:#c2dbf5;fill-rule:evenodd;stroke-width:0px;stroke:none;stroke-opacity:1;fill-opacity:1"
     id="path26-8" /><path
     d="m 8.0886,44.3076 -3.8144,-2.1264 0.2391,1.718 c 0.0367,0.2649 0.114,0.4562 0.2354,0.5775 0.1213,0.1214 0.3421,0.2135 0.6621,0.2649 v 0.1067 L 4.4176,44.8262 3.9468,41.416 4.0461,41.3975 7.7539,43.4798 7.57,42.1407 C 7.5406,41.92 7.4964,41.7618 7.4412,41.6698 7.386,41.5779 7.3125,41.5116 7.2242,41.4749 7.136,41.4381 6.9815,41.416 6.7571,41.4123 L 6.7423,41.2945 7.6693,41.2136 8.096,44.3112 8.0886,44.3075 Z m -1.3352,1.9129 0.4157,1.913 1.0262,-0.2943 C 8.3792,47.7877 8.4969,47.7399 8.5484,47.6957 8.5889,47.6627 8.6183,47.6075 8.633,47.5375 8.6551,47.4382 8.6587,47.3389 8.6367,47.2432 L 8.6036,47.0998 8.7029,47.0704 9.0855,48.8288 8.9862,48.8582 8.9531,48.711 C 8.931,48.6154 8.8905,48.5271 8.8317,48.4535 8.7913,48.3946 8.7361,48.3652 8.6735,48.3579 8.611,48.3505 8.4933,48.3726 8.3168,48.4241 L 5.9994,49.0863 C 5.8192,49.1378 5.7014,49.1857 5.65,49.2298 5.6096,49.2629 5.5801,49.3144 5.5618,49.388 5.5397,49.491 5.5361,49.5904 5.5581,49.686 l 0.033,0.1472 -0.0956,0.0294 -0.3826,-1.7584 0.0994,-0.0294 0.033,0.1435 c 0.0368,0.1693 0.1067,0.2795 0.2097,0.331 0.0662,0.0331 0.2097,0.0221 0.423,-0.0404 l 1.0924,-0.3127 -0.4157,-1.913 -1.0924,0.3127 c -0.1802,0.0515 -0.298,0.0994 -0.3494,0.1435 -0.0404,0.0331 -0.0699,0.0883 -0.0846,0.1619 -0.0221,0.0993 -0.0257,0.195 -0.0036,0.2943 l 0.033,0.1508 -0.0993,0.0294 -0.3826,-1.7621 0.0994,-0.0294 0.033,0.1435 c 0.0368,0.1692 0.1067,0.2795 0.2097,0.3347 0.0662,0.0331 0.2097,0.0185 0.423,-0.0441 l 2.3173,-0.6622 c 0.1839,-0.0515 0.3016,-0.0994 0.3531,-0.1435 0.0405,-0.0331 0.0699,-0.0846 0.0883,-0.1582 0.0221,-0.0993 0.0221,-0.1987 0.0037,-0.298 L 8.0702,44.613 8.1695,44.5836 8.5521,46.3457 8.4528,46.3751 8.4197,46.2242 C 8.3976,46.1286 8.3571,46.0403 8.2983,45.9667 8.2579,45.9115 8.2027,45.8821 8.1401,45.871 8.0776,45.8637 7.9562,45.8821 7.7797,45.9336 l -1.0263,0.2943 z m 2.6153,3.8996 -1.3756,0.5738 0.2795,0.8756 c 0.0736,0.228 0.1509,0.3679 0.2355,0.4194 0.1103,0.0699 0.2685,0.0663 0.4708,-0.0037 L 9.012,52.0919 7.8018,52.5959 7.7687,52.4892 C 7.9305,52.3899 8.0298,52.32 8.0667,52.2721 8.1145,52.2133 8.1439,52.1361 8.1513,52.0404 8.1587,51.9448 8.1365,51.816 8.0851,51.6505 L 7.8056,50.7749 6.658,51.2532 C 6.5034,51.3157 6.4115,51.3635 6.3858,51.3929 6.3564,51.4223 6.3416,51.4592 6.3306,51.507 6.3232,51.5548 6.338,51.6321 6.371,51.7424 l 0.2133,0.6769 c 0.0699,0.2244 0.1361,0.3826 0.1987,0.4745 0.0589,0.092 0.1435,0.1656 0.2538,0.2281 0.1435,0.0772 0.3458,0.1361 0.5996,0.1729 l 0.0368,0.1178 -0.9822,0.0221 -0.9747,-3.0718 0.0956,-0.0405 0.0442,0.1398 c 0.0294,0.092 0.0772,0.1729 0.1434,0.2428 0.0478,0.0515 0.103,0.0772 0.1618,0.0772 0.0626,0 0.1766,-0.0367 0.3458,-0.1067 L 8.7656,49.7337 C 8.9863,49.6418 9.115,49.5608 9.1482,49.4872 9.1923,49.3879 9.1923,49.2555 9.1371,49.0936 L 9.093,48.9538 9.1886,48.9134 10.1634,51.9852 9.4167,52.3458 9.3799,52.2317 c 0.1692,-0.1178 0.2796,-0.2134 0.3347,-0.2943 0.0516,-0.0772 0.0809,-0.1729 0.0846,-0.2869 0,-0.0883 -0.0294,-0.2318 -0.0919,-0.4304 L 9.3615,50.1275 9.3688,50.1201 Z m 1.5486,4.1349 0.0919,-0.0478 0.6695,1.6445 -0.0919,0.0478 -0.0552,-0.1398 c -0.0626,-0.1582 -0.1509,-0.2501 -0.2612,-0.2795 -0.0699,-0.0184 -0.2097,0.0257 -0.4082,0.1361 L 9.2216,56.4918 C 8.9678,56.6279 8.7507,56.7052 8.5705,56.7235 8.3866,56.7456 8.2064,56.7088 8.0298,56.6168 7.8496,56.5249 7.7172,56.3667 7.6252,56.1496 7.5517,55.973 7.5333,55.8111 7.5701,55.6677 c 0.0367,-0.1435 0.103,-0.2391 0.2023,-0.2943 0.0809,-0.0442 0.1508,-0.0515 0.2133,-0.0257 0.0772,0.0367 0.1324,0.0956 0.1655,0.1765 0.0257,0.0589 0.0294,0.1251 0.0147,0.1913 -0.0147,0.0662 -0.0846,0.1766 -0.2023,0.3311 -0.0699,0.0919 -0.092,0.1692 -0.0662,0.2391 0.0221,0.0515 0.0662,0.0845 0.1398,0.0993 0.0735,0.0147 0.1766,-0.0148 0.3163,-0.0883 l 2.2916,-1.225 c 0.1691,-0.092 0.2758,-0.1619 0.32,-0.2171 0.0331,-0.0404 0.0515,-0.0993 0.0589,-0.1765 0.0073,-0.103 -0.0074,-0.1987 -0.0479,-0.2906 l -0.0552,-0.1398 z m -1.5413,5.3527 -0.0883,0.0552 -0.743,-1.604 0.0883,-0.0551 0.0626,0.1324 c 0.0699,0.1545 0.1618,0.2427 0.2758,0.2649 0.0699,0.0147 0.206,-0.0405 0.4009,-0.1582 l 2.1113,-1.2876 c 0.1655,-0.0994 0.2685,-0.1803 0.309,-0.2355 0.0331,-0.0441 0.0478,-0.103 0.0515,-0.1765 0,-0.103 -0.0184,-0.2023 -0.0589,-0.2906 l -0.0625,-0.1324 0.0882,-0.0552 0.743,1.604 -0.0882,0.0552 -0.0626,-0.1361 c -0.0699,-0.1545 -0.1618,-0.2391 -0.2722,-0.2612 -0.0735,-0.0148 -0.206,0.0367 -0.4046,0.1545 L 9.615,58.7691 c -0.1655,0.0993 -0.2685,0.1802 -0.3089,0.2354 -0.0331,0.0441 -0.0478,0.103 -0.0515,0.1802 0,0.1031 0.0184,0.1987 0.0588,0.287 l 0.0626,0.1361 z m 2.5013,2.1705 -0.7798,-1.3759 -0.6253,0.125 c -0.1545,0.0294 -0.2611,0.0663 -0.32,0.1104 -0.0478,0.0368 -0.0735,0.092 -0.0809,0.1693 -0.0074,0.0772 0.0331,0.206 0.1177,0.3862 l -0.0846,0.0626 -0.6363,-1.1183 0.0846,-0.0626 c 0.1067,0.1324 0.1912,0.206 0.2538,0.2208 0.125,0.0368 0.3274,0.0221 0.6143,-0.0368 l 3.2627,-0.6475 0.0515,0.092 -1.8796,3.1601 c -0.1509,0.2539 -0.2355,0.4451 -0.2502,0.5702 -0.0148,0.1287 0.0147,0.2686 0.0883,0.4194 l -0.0846,0.0626 -0.7946,-1.4053 0.0846,-0.0625 c 0.0883,0.1361 0.1618,0.217 0.2244,0.2391 0.0626,0.0257 0.1213,0.0184 0.1692,-0.0221 0.0662,-0.0515 0.1508,-0.1655 0.2575,-0.3421 l 0.3237,-0.5481 0.0037,0.0037 z m 0.1287,-0.1987 0.9122,-1.5378 -1.6037,0.3128 0.6915,1.2213 z m 2.63,-0.0552 0.6326,0.894 -0.732,4.0173 1.659,-1.5378 c 0.1765,-0.1656 0.2721,-0.2906 0.2832,-0.3752 0.0147,-0.1141 -0.0221,-0.2391 -0.1104,-0.3679 l -0.0809,-0.1141 0.0772,-0.0736 0.8093,1.1478 -0.0772,0.0736 -0.0809,-0.1177 c -0.0993,-0.1398 -0.206,-0.2024 -0.32,-0.195 -0.0699,0.0074 -0.1876,0.0846 -0.3458,0.2354 l -2.4241,2.2477 -0.0625,-0.0882 0.7797,-4.3189 -1.7729,1.6444 c -0.1766,0.1656 -0.2722,0.287 -0.2833,0.3716 -0.0147,0.1177 0.0221,0.2391 0.1104,0.3679 l 0.0809,0.1177 -0.0772,0.0736 -0.8093,-1.1479 0.0772,-0.0736 0.0809,0.1141 c 0.0994,0.1398 0.206,0.206 0.3237,0.195 0.0699,-0.0074 0.1876,-0.0846 0.3458,-0.2355 l 2.0011,-1.8541 c 0.0294,-0.1876 0.0441,-0.3201 0.0404,-0.3973 -0.0037,-0.0773 -0.0257,-0.1766 -0.0662,-0.298 -0.0221,-0.0589 -0.0663,-0.1361 -0.1325,-0.2318 l 0.0773,-0.0736 h -0.0037 z m 5.0246,6.39 -0.7724,1.008 -0.0662,-0.0772 c 0.1435,-0.3128 0.2133,-0.5886 0.2133,-0.8314 0,-0.3495 -0.1213,-0.6695 -0.3604,-0.9529 -0.3274,-0.3899 -0.71,-0.5371 -1.1476,-0.4414 -0.3678,0.0809 -0.71,0.2943 -1.0226,0.6401 -0.2538,0.2795 -0.4378,0.5923 -0.5517,0.9381 -0.1141,0.3458 -0.1435,0.6622 -0.0883,0.9528 0.0552,0.2906 0.1655,0.5334 0.3274,0.7247 0.0956,0.1141 0.1986,0.2061 0.3126,0.2833 0.1141,0.0772 0.2354,0.1361 0.3641,0.1802 l 0.7688,-0.8535 c 0.1324,-0.1472 0.2097,-0.2539 0.2317,-0.3237 0.022,-0.0698 0.0221,-0.1398 0.0037,-0.2134 -0.0184,-0.0736 -0.0809,-0.1692 -0.1839,-0.2943 l 0.0735,-0.0809 0.9968,1.1809 -0.0735,0.0809 -0.0479,-0.0552 c -0.0993,-0.1178 -0.2023,-0.1582 -0.3052,-0.1287 -0.0736,0.0221 -0.1803,0.114 -0.3237,0.2722 l -0.8129,0.9013 c -0.228,-0.0846 -0.4304,-0.1876 -0.6106,-0.3127 -0.1802,-0.1251 -0.3568,-0.2907 -0.5297,-0.4967 -0.4966,-0.5886 -0.71,-1.2176 -0.6364,-1.8909 0.0552,-0.504 0.2428,-0.9344 0.5665,-1.2913 0.2355,-0.2576 0.5113,-0.4415 0.835,-0.5519 0.3826,-0.1287 0.7578,-0.136 1.1182,-0.0221 0.3016,0.0957 0.5812,0.298 0.8387,0.6034 0.092,0.1104 0.1729,0.2208 0.2317,0.331 0.0589,0.1067 0.1324,0.2759 0.2207,0.5004 0.0442,0.114 0.0772,0.1839 0.103,0.2134 0.0258,0.0295 0.0552,0.0404 0.0957,0.0367 0.0404,-0.0036 0.0956,-0.0441 0.1655,-0.1103 l 0.0699,0.0845 -0.0037,-0.0037 z m 3.0788,3.1712 0.0626,-0.0919 1.0336,0.9233 -0.0625,0.092 -0.1104,-0.0994 c -0.1141,-0.103 -0.2391,-0.125 -0.3752,-0.0699 -0.0663,0.0257 -0.1619,0.1287 -0.287,0.3127 l -0.9232,1.3538 c -0.2281,0.3347 -0.4341,0.5702 -0.618,0.7026 -0.1839,0.1325 -0.4083,0.1913 -0.6658,0.1693 -0.2611,-0.0221 -0.537,-0.1619 -0.8276,-0.423 -0.32,-0.2869 -0.5187,-0.5629 -0.5959,-0.8388 -0.0772,-0.2722 -0.0809,-0.5481 -0.0037,-0.824 0.0552,-0.1876 0.217,-0.4819 0.4929,-0.8866 l 0.8901,-1.306 c 0.1398,-0.206 0.206,-0.3606 0.2024,-0.4709 -0.0074,-0.1067 -0.0626,-0.2134 -0.1729,-0.309 l -0.1104,-0.0993 0.0626,-0.092 1.2617,1.1294 -0.0626,0.092 -0.1104,-0.0994 c -0.1213,-0.1067 -0.2354,-0.1434 -0.3458,-0.0993 -0.0772,0.0257 -0.1765,0.1361 -0.3053,0.3201 l -0.9932,1.4568 c -0.0883,0.1287 -0.1802,0.2869 -0.2722,0.4745 -0.092,0.1876 -0.1435,0.3495 -0.1545,0.493 -0.0111,0.1434 0.0147,0.2906 0.0772,0.4414 0.0626,0.1545 0.1655,0.2943 0.3163,0.4304 0.1913,0.1693 0.3936,0.2759 0.6106,0.3164 0.2133,0.0405 0.4009,0.0111 0.5591,-0.0883 0.1582,-0.0993 0.3568,-0.3274 0.5996,-0.6805 l 0.9233,-1.3538 c 0.1434,-0.2097 0.2097,-0.3568 0.206,-0.4451 -0.0074,-0.1214 -0.0662,-0.2317 -0.1766,-0.3311 l -0.1103,-0.0993 h -0.0148 z m 0.949,0.802 0.8534,0.6107 0.4487,4.0724 1.1293,-2.0748 c 0.1213,-0.2208 0.1728,-0.3752 0.1618,-0.4599 -0.0184,-0.1141 -0.0883,-0.2171 -0.2097,-0.3054 l -0.1104,-0.0772 0.0552,-0.0993 1.0924,0.7836 -0.0552,0.0993 -0.1104,-0.0809 c -0.1324,-0.0956 -0.2501,-0.1178 -0.3568,-0.0626 -0.0662,0.0331 -0.1508,0.1509 -0.2611,0.3495 l -1.6515,3.0314 -0.0846,-0.0589 -0.4892,-4.3777 -1.2065,2.2146 c -0.1213,0.2208 -0.1765,0.3715 -0.1619,0.4599 0.0184,0.1178 0.0883,0.2171 0.2097,0.3054 l 0.1103,0.0809 -0.0551,0.0994 -1.0925,-0.7799 0.0515,-0.0993 0.1067,0.0772 c 0.1324,0.0956 0.2538,0.1177 0.3605,0.0662 0.0662,-0.0331 0.1508,-0.1508 0.2611,-0.3495 l 1.3647,-2.5015 c -0.0257,-0.1876 -0.0515,-0.3164 -0.0735,-0.39 -0.0257,-0.0736 -0.0735,-0.1582 -0.1471,-0.2575 -0.0368,-0.0478 -0.0994,-0.103 -0.1913,-0.1692 l 0.0552,-0.0993 -0.0037,-0.0074 z m 3.3951,6.964 -0.0441,0.103 -1.4272,-0.7983 0.0441,-0.103 0.1177,0.0663 c 0.1361,0.0772 0.2574,0.0845 0.3568,0.0294 0.0662,-0.0367 0.1471,-0.1729 0.2427,-0.401 l 1.0483,-2.4611 c 0.0809,-0.1913 0.1251,-0.3274 0.1324,-0.401 0.0037,-0.0552 -0.0147,-0.1141 -0.0478,-0.1765 -0.0515,-0.0846 -0.1177,-0.1509 -0.1986,-0.195 l -0.1177,-0.0662 0.0441,-0.1031 1.4272,0.7984 -0.0441,0.103 -0.1214,-0.0663 C 28.3598,75.1029 28.2421,75.0955 28.1428,75.1507 28.0766,75.1875 27.992,75.32 27.8964,75.548 l -1.0483,2.4612 c -0.0809,0.1912 -0.1251,0.3274 -0.1324,0.401 -0.0037,0.0552 0.0147,0.114 0.0515,0.1766 0.0515,0.0846 0.1141,0.1508 0.1949,0.195 l 0.1214,0.0662 v 0.0037 z m 5.4219,-1.8026 -0.0405,0.1067 c -0.1287,-0.033 -0.2354,-0.033 -0.3237,0 -0.125,0.0516 -0.2575,0.1583 -0.3972,0.3164 l -2.4204,2.7443 -0.0919,-0.0441 -0.0294,-3.9841 C 29.1986,75.982 29.1949,75.857 29.1802,75.8055 29.1617,75.7246 29.125,75.6547 29.0772,75.5921 29.0293,75.5295 28.9558,75.4671 28.8528,75.4082 l 0.0404,-0.1067 1.3904,0.6768 -0.0404,0.1067 c -0.1655,-0.0588 -0.2759,-0.0772 -0.3421,-0.0588 -0.0626,0.0221 -0.1067,0.0662 -0.1324,0.1361 -0.0368,0.0956 -0.0515,0.2649 -0.0515,0.504 l 0.0184,2.7112 1.6406,-1.8688 c 0.1618,-0.1839 0.2575,-0.3201 0.2906,-0.4047 0.0221,-0.0552 0.0147,-0.1214 -0.0148,-0.1949 -0.0294,-0.0736 -0.0993,-0.1509 -0.206,-0.2281 -0.0074,-0.0074 -0.0221,-0.0147 -0.0404,-0.0294 l 0.0404,-0.1067 1.052,0.5114 z m 1.0225,0.5408 -0.4267,1.604 0.7761,0.2722 c 0.2024,0.0699 0.3458,0.0846 0.4304,0.0368 0.114,-0.0589 0.2097,-0.2024 0.2796,-0.4304 l 0.0956,0.0331 -0.3752,1.4126 -0.0956,-0.0331 c 0.0294,-0.206 0.0367,-0.3421 0.0294,-0.4047 -0.0111,-0.0809 -0.0515,-0.1545 -0.1104,-0.2171 -0.0589,-0.0662 -0.1655,-0.125 -0.3126,-0.1765 l -0.7762,-0.2722 -0.3567,1.3354 c -0.0478,0.1803 -0.0699,0.2906 -0.0662,0.3348 0.0037,0.0441 0.0184,0.0809 0.0479,0.1177 0.0294,0.0331 0.0919,0.0699 0.1912,0.1031 l 0.5996,0.2097 c 0.1987,0.0699 0.3494,0.1067 0.4487,0.103 0.0994,0 0.2024,-0.0331 0.3127,-0.0957 0.1397,-0.0845 0.3016,-0.2354 0.4819,-0.4414 l 0.103,0.0368 -0.5775,0.9087 -2.7256,-0.9565 0.0294,-0.1104 0.125,0.0442 c 0.0846,0.0294 0.1692,0.0331 0.2538,0.0147 0.0662,-0.011 0.1141,-0.0478 0.1508,-0.103 0.0368,-0.0589 0.0809,-0.1839 0.1324,-0.3826 l 0.7026,-2.634 c 0.0699,-0.2576 0.0883,-0.423 0.0589,-0.5004 -0.0405,-0.103 -0.1361,-0.1765 -0.2796,-0.228 l -0.125,-0.0441 0.0294,-0.1104 2.7293,0.9565 -0.1987,0.9013 -0.103,-0.0367 C 35.0287,78.6127 35.025,78.4508 35.0029,78.3552 34.9808,78.2595 34.9294,78.1749 34.8558,78.105 34.7932,78.0498 34.6755,77.9909 34.499,77.9321 l -0.9711,-0.3385 v -0.0037 z m 5.1497,5.4851 -0.9711,-0.217 -0.9012,-2.2184 c -0.092,-0.0184 -0.1655,-0.033 -0.2244,-0.0441 -0.0221,-0.0037 -0.0478,-0.0111 -0.0735,-0.0184 -0.0257,-0.0074 -0.0552,-0.0148 -0.0809,-0.0221 l -0.206,1.2103 c -0.0442,0.2613 -0.0478,0.4304 -0.0074,0.5041 0.0515,0.1067 0.1472,0.1729 0.2833,0.2023 l 0.1434,0.0331 -0.0184,0.1141 -1.5559,-0.3459 0.0184,-0.114 0.1361,0.0294 c 0.1545,0.033 0.2722,0 0.3568,-0.0994 0.0478,-0.0552 0.0919,-0.2023 0.1324,-0.4377 l 0.4561,-2.6892 c 0.0441,-0.2612 0.0478,-0.4304 0.0074,-0.504 -0.0552,-0.1067 -0.1509,-0.1729 -0.287,-0.206 l -0.1361,-0.0294 0.0185,-0.1141 1.3242,0.2943 c 0.3863,0.0846 0.6658,0.1802 0.835,0.2869 0.1729,0.103 0.309,0.2576 0.4046,0.4599 0.0993,0.2023 0.125,0.423 0.0846,0.6622 -0.0442,0.2539 -0.1545,0.4599 -0.3311,0.618 -0.1765,0.1545 -0.423,0.2391 -0.743,0.2465 l 0.548,1.3611 c 0.1251,0.3128 0.2428,0.5261 0.3494,0.6438 0.1104,0.1178 0.2612,0.2097 0.4524,0.2796 l -0.0184,0.114 h 0.0037 z m -2.218,-2.7149 c 0.0331,0.0074 0.0626,0.0147 0.0883,0.0221 0.0257,0.0074 0.0441,0.0111 0.0588,0.0147 0.3458,0.0773 0.6217,0.0516 0.8276,-0.0845 0.206,-0.1324 0.3311,-0.3311 0.3752,-0.5997 0.0442,-0.2612 0.0074,-0.4856 -0.1067,-0.6806 -0.114,-0.1949 -0.2869,-0.3164 -0.5223,-0.3716 -0.103,-0.0221 -0.2465,-0.033 -0.4304,-0.033 l -0.2943,1.729 0.0037,0.0037 z m 5.3446,-1.4053 -0.1104,1.4605 -0.0993,-0.0111 c -0.011,-0.2832 -0.0515,-0.5114 -0.125,-0.6879 -0.0699,-0.1766 -0.1839,-0.3201 -0.3311,-0.4304 -0.1471,-0.1141 -0.3053,-0.1802 -0.4708,-0.195 -0.1876,-0.0184 -0.3494,0.0331 -0.4819,0.1509 -0.1324,0.1177 -0.206,0.2649 -0.2207,0.4304 -0.0111,0.1287 0.0221,0.2501 0.0883,0.3642 0.0993,0.1693 0.3531,0.401 0.7541,0.7027 0.3273,0.2465 0.5517,0.4341 0.6695,0.5592 0.1177,0.1251 0.206,0.2686 0.2611,0.4304 0.0552,0.1619 0.0772,0.3237 0.0662,0.4929 -0.0257,0.3201 -0.1545,0.585 -0.3862,0.7947 -0.2355,0.2097 -0.5224,0.298 -0.8607,0.2649 -0.1067,-0.0111 -0.206,-0.0294 -0.3016,-0.0589 -0.0552,-0.0147 -0.1692,-0.0663 -0.3421,-0.1472 -0.1729,-0.0845 -0.2796,-0.1287 -0.3274,-0.1324 -0.0441,-0.0036 -0.0809,0.0074 -0.1104,0.0368 -0.0294,0.0294 -0.0515,0.092 -0.0735,0.1876 l -0.0993,-0.0111 0.1104,-1.4494 0.0993,0.011 c 0.0257,0.3091 0.0699,0.5408 0.1398,0.699 0.0699,0.1582 0.1802,0.2943 0.3384,0.4121 0.1545,0.114 0.3311,0.1839 0.526,0.2023 0.2281,0.0221 0.412,-0.0257 0.5518,-0.1508 0.1398,-0.1251 0.2207,-0.2796 0.2354,-0.4672 0.0074,-0.103 -0.0074,-0.2097 -0.0515,-0.3237 -0.0405,-0.1104 -0.114,-0.2171 -0.2097,-0.3201 -0.0662,-0.0699 -0.2502,-0.2208 -0.5481,-0.4562 -0.3016,-0.2354 -0.5113,-0.4194 -0.6363,-0.5518 -0.125,-0.1361 -0.2133,-0.2759 -0.2722,-0.4304 -0.0589,-0.1545 -0.0809,-0.3164 -0.0662,-0.4893 0.0221,-0.3017 0.1434,-0.5518 0.3641,-0.7505 0.2207,-0.1986 0.4856,-0.2832 0.7982,-0.2501 0.195,0.0184 0.4009,0.0956 0.6106,0.228 0.0957,0.0626 0.1692,0.0956 0.2097,0.0993 0.0478,0.0037 0.0882,-0.0073 0.1213,-0.0367 0.0331,-0.0294 0.0626,-0.092 0.0883,-0.1876 l 0.0993,0.011 h -0.0074 z m 2.1776,4.3373 -0.0037,0.1141 -1.5854,-0.0626 0.0037,-0.114 0.1324,0.0037 c 0.1545,0.0073 0.2648,-0.0405 0.3385,-0.1398 0.0441,-0.0663 0.0735,-0.2244 0.0809,-0.4782 l 0.0845,-2.737 c 0.0074,-0.2134 0,-0.3569 -0.0221,-0.4267 -0.0184,-0.0515 -0.0515,-0.0994 -0.1067,-0.1398 -0.0772,-0.0515 -0.1618,-0.0809 -0.2501,-0.0846 l -0.1325,-0.0037 0.0037,-0.1177 1.5854,0.0625 -0.0037,0.1178 -0.1324,-0.0037 c -0.1508,-0.0074 -0.2611,0.0405 -0.3347,0.1398 -0.0478,0.0662 -0.0772,0.2244 -0.0846,0.4782 l -0.0846,2.737 c -0.0074,0.2134 0,0.3569 0.0221,0.4267 0.0184,0.0515 0.0552,0.0993 0.1104,0.1398 0.0772,0.0515 0.1582,0.0809 0.2465,0.0846 z m 3.3693,-4.374 0.1177,0.9859 -0.103,0.011 c -0.0331,-0.1729 -0.0699,-0.2943 -0.1104,-0.3679 -0.0662,-0.1141 -0.1472,-0.195 -0.2428,-0.2428 -0.0993,-0.0478 -0.2244,-0.0625 -0.3752,-0.0478 l -0.5187,0.0515 0.2465,3.2264 c 0.0184,0.2612 0.0589,0.4194 0.1104,0.4782 0.0735,0.0809 0.1839,0.1141 0.3274,0.0993 l 0.1287,-0.011 0.0074,0.114 -1.5633,0.1582 -0.0074,-0.114 0.1324,-0.0148 c 0.1546,-0.0147 0.2612,-0.0809 0.32,-0.195 0.0331,-0.0699 0.0442,-0.2244 0.0257,-0.4598 L 45.6001,79.363 45.155,79.4071 c -0.1728,0.0184 -0.2943,0.0442 -0.3641,0.0809 -0.092,0.0479 -0.1655,0.1324 -0.2244,0.2502 -0.0589,0.1178 -0.0883,0.2759 -0.0846,0.4672 l -0.103,0.011 -0.0331,-0.997 3.0089,-0.3016 H 47.351 Z m 2.7036,-0.4525 1.2691,-0.2833 0.0184,0.1141 -0.0699,0.0147 c -0.0478,0.0111 -0.1104,0.0479 -0.1913,0.1141 -0.0809,0.0663 -0.1508,0.1508 -0.2097,0.2575 -0.0589,0.1031 -0.1251,0.2686 -0.1987,0.4893 l -0.6069,1.7732 0.1765,1.0448 c 0.0442,0.2575 0.0957,0.4084 0.1545,0.4636 0.0809,0.0699 0.195,0.0919 0.3422,0.0589 l 0.1177,-0.0258 0.0184,0.1141 -1.5413,0.3421 -0.0184,-0.114 0.1287,-0.0294 c 0.1545,-0.0331 0.2538,-0.1104 0.3016,-0.2318 0.0294,-0.0736 0.0221,-0.228 -0.0184,-0.4598 l -0.1655,-0.986 -1.2911,-1.523 c -0.1509,-0.1766 -0.2538,-0.2869 -0.3053,-0.331 -0.0515,-0.0405 -0.1471,-0.0846 -0.2906,-0.1251 -0.0404,-0.0147 -0.0919,-0.011 -0.1618,0.0037 l -0.0184,-0.1141 1.5523,-0.3458 0.0184,0.1141 -0.0809,0.0184 c -0.0846,0.0184 -0.1582,0.0589 -0.2207,0.1178 -0.0625,0.0626 -0.0882,0.1361 -0.0699,0.228 0.0111,0.0736 0.0883,0.195 0.2317,0.3606 l 0.9859,1.1735 0.4928,-1.4421 c 0.0735,-0.2171 0.103,-0.3715 0.0883,-0.4672 -0.0111,-0.0588 -0.0331,-0.1067 -0.0662,-0.1434 -0.033,-0.0405 -0.0772,-0.0663 -0.1287,-0.0809 -0.0515,-0.0148 -0.1287,-0.0111 -0.2243,0.011 l -0.0184,-0.114 v 0.0037 z m 4.0535,-1.3024 c 0.4598,-0.1619 0.9122,-0.103 1.3536,0.1802 0.4451,0.2833 0.7431,0.7211 0.9049,1.3207 0.1655,0.618 0.1324,1.1883 -0.0994,1.7143 -0.2317,0.5261 -0.5885,0.8719 -1.0704,1.0411 -0.4856,0.1693 -0.949,0.1141 -1.3867,-0.1656 -0.4377,-0.2795 -0.7393,-0.7357 -0.9085,-1.3648 -0.1729,-0.6438 -0.1214,-1.236 0.1545,-1.7768 0.2391,-0.4709 0.5885,-0.7836 1.052,-0.9455 v -0.0037 z m 0.0074,0.2354 c -0.3164,0.1104 -0.5333,0.3348 -0.6548,0.6695 -0.1471,0.4194 -0.1361,0.9492 0.0368,1.5967 0.1765,0.6622 0.4377,1.1294 0.7798,1.398 0.2611,0.206 0.548,0.2538 0.8607,0.1434 0.3311,-0.1177 0.5665,-0.3605 0.7026,-0.7357 0.1361,-0.3716 0.1214,-0.8792 -0.0515,-1.5194 -0.1839,-0.6916 -0.4414,-1.1698 -0.7724,-1.4273 -0.2648,-0.2061 -0.5628,-0.2465 -0.9012,-0.1287 v 0.0036 z m 2.9206,-1.1404 0.5701,1.5341 0.6217,-0.3017 c 0.1435,-0.0699 0.2317,-0.1582 0.2722,-0.2612 0.0404,-0.103 0.0294,-0.2686 -0.0257,-0.493 l 0.0919,-0.0441 0.4892,1.3206 -0.0919,0.0442 C 58.9048,77.906 58.846,77.803 58.7871,77.7478 c -0.0589,-0.0552 -0.125,-0.0882 -0.195,-0.0956 -0.0699,-0.0074 -0.1618,0.0184 -0.2758,0.0736 l -0.6217,0.3017 0.4524,1.225 c 0.0735,0.1987 0.1324,0.3237 0.1766,0.3752 0.033,0.0405 0.0845,0.0663 0.1508,0.0736 0.0919,0.0111 0.1765,-0.0036 0.2575,-0.0441 l 0.1251,-0.0589 0.0404,0.1067 -1.4603,0.7101 -0.0405,-0.1067 0.1214,-0.0589 c 0.1397,-0.0699 0.2243,-0.1656 0.2538,-0.2906 0.0184,-0.0809 -0.0184,-0.2391 -0.103,-0.4709 l -0.9343,-2.52 c -0.0735,-0.1986 -0.1324,-0.3237 -0.1766,-0.3752 -0.033,-0.0405 -0.0845,-0.0626 -0.1471,-0.0736 -0.0883,-0.011 -0.1729,0.0037 -0.2575,0.0442 l -0.1214,0.0588 -0.0404,-0.1067 2.5343,-1.2324 0.3494,0.8425 -0.0883,0.0441 c -0.1104,-0.1619 -0.2097,-0.2686 -0.3016,-0.3274 -0.0882,-0.0589 -0.1839,-0.0846 -0.2832,-0.0809 -0.0993,0.0036 -0.2354,0.0478 -0.4156,0.1324 l -0.7504,0.3642 z m 5.1644,-3.344 0.4928,0.8203 -0.0882,0.0626 c -0.0994,-0.1361 -0.1766,-0.2244 -0.2428,-0.2686 -0.103,-0.0699 -0.2097,-0.0993 -0.3127,-0.0883 -0.1067,0.0074 -0.2243,0.0589 -0.3531,0.1509 l -0.4414,0.3164 1.4971,2.748 c 0.1214,0.2208 0.217,0.3421 0.2869,0.3679 0.0994,0.0331 0.2097,0.0037 0.3311,-0.0809 l 0.1104,-0.0772 0.0552,0.0994 -1.3315,0.9528 -0.0515,-0.0993 0.1103,-0.0809 c 0.1324,-0.0957 0.2024,-0.2097 0.206,-0.3421 0.0037,-0.0809 -0.0515,-0.2208 -0.1582,-0.4231 l -1.4971,-2.748 -0.3789,0.2686 c -0.1472,0.103 -0.2428,0.1913 -0.2907,0.2612 -0.0625,0.092 -0.0956,0.206 -0.0993,0.3421 -0.0037,0.1361 0.0331,0.2907 0.1104,0.4599 l -0.0883,0.0626 -0.423,-0.8719 2.5602,-1.8357 -0.0037,0.0037 z m 1.3021,-0.7321 0.8387,1.3722 0.6658,-0.5334 c 0.1728,-0.1398 0.2685,-0.2612 0.2906,-0.3679 0.0294,-0.1398 -0.0111,-0.3128 -0.125,-0.5187 l 0.0809,-0.0663 0.7393,1.2103 -0.0809,0.0663 c -0.125,-0.1509 -0.2097,-0.2428 -0.2611,-0.2759 -0.0626,-0.0368 -0.1361,-0.0478 -0.217,-0.0331 -0.0809,0.0148 -0.1876,0.0736 -0.3126,0.1729 l -0.6658,0.5334 0.6988,1.1441 c 0.0957,0.1545 0.1582,0.2428 0.1876,0.2649 0.0331,0.0221 0.0699,0.0331 0.1104,0.0294 0.0405,-0.0037 0.1067,-0.0404 0.1876,-0.1067 l 0.515,-0.412 c 0.1692,-0.1361 0.2869,-0.2502 0.3494,-0.3385 0.0626,-0.0882 0.103,-0.2023 0.125,-0.3384 0.0294,-0.1802 0.0257,-0.4158 -0.0073,-0.7064 l 0.0882,-0.0699 0.2722,1.0815 -2.3358,1.8762 -0.0588,-0.0956 0.1067,-0.0846 c 0.0699,-0.0589 0.125,-0.1324 0.1655,-0.2207 0.0331,-0.0662 0.0368,-0.1324 0.0221,-0.2023 -0.0184,-0.0699 -0.0773,-0.1876 -0.1803,-0.3569 l -1.3793,-2.2551 c -0.1361,-0.2207 -0.2354,-0.3421 -0.3053,-0.3605 -0.0956,-0.0257 -0.206,0.0111 -0.331,0.1141 l -0.1067,0.0846 -0.0589,-0.0957 2.3358,-1.8762 0.5002,0.7321 -0.0883,0.0699 c -0.1434,-0.1582 -0.2538,-0.2538 -0.3347,-0.2943 -0.0809,-0.0367 -0.1692,-0.0441 -0.2648,-0.0221 -0.0736,0.0221 -0.1876,0.092 -0.3385,0.2134 l -0.8313,0.6659 h 0.0037 z m 4.1268,-4.1828 0.8906,1.0227 -0.0629,0.0626 c -0.3312,-0.2391 -0.6323,-0.3532 -0.8973,-0.3421 -0.2685,0.0147 -0.5113,0.1324 -0.732,0.3531 -0.1839,0.184 -0.3126,0.4047 -0.3789,0.6622 -0.0662,0.2575 -0.0552,0.5444 0.0368,0.8682 0.0919,0.3201 0.2722,0.6586 0.5407,1.008 0.2206,0.2906 0.4486,0.5003 0.6918,0.6327 0.2424,0.1324 0.4855,0.1729 0.7355,0.1251 0.2499,-0.0478 0.478,-0.1766 0.6843,-0.3862 0.1803,-0.1802 0.3086,-0.3826 0.3782,-0.6107 0.0704,-0.2281 0.0889,-0.5556 0.0554,-0.986 l 0.0998,-0.0184 c 0.0772,0.423 0.0696,0.7946 -0.0151,1.1146 -0.0881,0.3201 -0.2575,0.6034 -0.5149,0.8609 -0.4637,0.4599 -0.9711,0.6217 -1.5229,0.4819 -0.4118,-0.103 -0.7687,-0.3532 -1.0666,-0.7505 -0.2428,-0.3201 -0.4009,-0.6768 -0.4819,-1.0668 -0.0772,-0.3936 -0.0625,-0.7689 0.0442,-1.1367 0.1067,-0.3642 0.2906,-0.6769 0.5517,-0.9344 0.2023,-0.2024 0.445,-0.3422 0.7245,-0.4268 0.0847,-0.0221 0.14,-0.0478 0.1618,-0.0699 0.0369,-0.0368 0.0587,-0.0846 0.0629,-0.1398 0.0034,-0.0772 -0.0151,-0.1619 -0.0587,-0.2538 z m 2.3137,0.2649 1.1958,-1.4163 -0.7614,-0.8424 c -0.1359,-0.1509 -0.2357,-0.2391 -0.2943,-0.2686 -0.0444,-0.0221 -0.099,-0.0221 -0.1652,0 -0.0847,0.0294 -0.1585,0.0809 -0.2214,0.1545 l -0.0914,0.1067 -0.0738,-0.0809 1.0994,-1.306 0.0738,0.0809 -0.0914,0.1067 c -0.0595,0.0699 -0.1031,0.1545 -0.1291,0.2538 -0.0185,0.0699 -0.0151,0.1398 0.0109,0.2024 0.0293,0.0625 0.1065,0.1692 0.239,0.3127 l 1.7183,1.9019 c 0.1359,0.1509 0.2315,0.2391 0.2902,0.2649 0.0444,0.0221 0.0998,0.0221 0.1619,0 0.088,-0.0294 0.1618,-0.0809 0.2206,-0.1545 l 0.0922,-0.1067 0.0738,0.0809 -1.1002,1.306 -0.073,-0.0809 0.0914,-0.1067 c 0.1065,-0.125 0.151,-0.2501 0.1325,-0.3789 -0.0109,-0.0845 -0.0956,-0.2134 -0.2541,-0.3899 l -0.8093,-0.8977 -1.195,1.4164 0.8093,0.8976 c 0.1359,0.1508 0.2315,0.2391 0.2902,0.2649 0.0444,0.0221 0.0998,0.0221 0.166,0 0.0847,-0.0294 0.1577,-0.0809 0.2206,-0.1508 l 0.0922,-0.1104 0.073,0.0809 -1.0994,1.306 -0.0738,-0.0809 0.0923,-0.1067 c 0.1065,-0.125 0.1509,-0.2538 0.1359,-0.3826 -0.0109,-0.0809 -0.0956,-0.2134 -0.2575,-0.3862 l -1.7175,-1.9019 c -0.1367,-0.1509 -0.2356,-0.2391 -0.2943,-0.2686 -0.0444,-0.0221 -0.0998,-0.0221 -0.1618,0 -0.0881,0.0294 -0.1618,0.0846 -0.2206,0.1545 l -0.0922,0.1067 -0.0738,-0.0809 1.1002,-1.306 0.073,0.0809 -0.0914,0.1104 c -0.0587,0.0736 -0.1031,0.1545 -0.1291,0.2538 -0.0185,0.07 -0.0143,0.1361 0.0151,0.2024 0.026,0.0662 0.1065,0.1692 0.2356,0.3164 l 0.7606,0.8424 h 0.0075 z m 0.7908,-3.7413 0.5887,-0.9307 3.5758,-0.2281 -1.7258,-1.4384 c -0.1836,-0.1545 -0.3162,-0.2244 -0.39,-0.2171 -0.1023,0.0111 -0.1946,0.0846 -0.2793,0.2207 l -0.0772,0.1178 -0.0813,-0.07 0.7581,-1.1956 0.0813,0.0699 -0.078,0.1214 c -0.0914,0.1434 -0.1174,0.2795 -0.0805,0.4047 0.0218,0.0772 0.1174,0.1839 0.2868,0.3237 l 2.5233,2.1006 -0.0587,0.092 -3.8442,0.2538 1.8433,1.5341 c 0.1836,0.1545 0.3128,0.2244 0.3858,0.2171 0.1031,-0.0111 0.1954,-0.0846 0.2801,-0.2171 l 0.0772,-0.1214 0.0805,0.0663 -0.7573,1.1919 -0.0813,-0.0662 0.0738,-0.1178 c 0.0922,-0.1471 0.1216,-0.2832 0.0805,-0.4083 -0.0218,-0.0773 -0.1174,-0.184 -0.2868,-0.3237 l -2.0814,-1.7328 c -0.166,0.0148 -0.2801,0.0331 -0.3463,0.0589 -0.0662,0.0257 -0.1434,0.0736 -0.2348,0.1508 -0.0444,0.0368 -0.0998,0.1067 -0.1619,0.2061 l -0.0813,-0.0699 0.0109,0.0074 z m 3.3661,-5.7426 c 0.239,-0.4783 0.6063,-0.7873 1.0994,-0.9271 0.4931,-0.1398 0.9753,-0.0552 1.4457,0.2575 0.4856,0.3237 0.8017,0.7652 0.9451,1.3318 0.1434,0.5665 0.0922,1.0963 -0.1619,1.5966 -0.2533,0.504 -0.6248,0.824 -1.1103,0.9638 -0.4856,0.1361 -0.9787,0.0405 -1.4793,-0.2906 -0.5073,-0.3384 -0.8235,-0.8094 -0.9451,-1.42 -0.1065,-0.5297 -0.0369,-1.0337 0.2063,-1.5156 v 0.0037 z m 0.1468,0.1655 c -0.1652,0.3274 -0.1912,0.6622 -0.0805,1.0044 0.1392,0.423 0.4629,0.802 0.9745,1.1404 0.5225,0.3458 0.9896,0.4856 1.4013,0.4158 0.3128,-0.0552 0.5518,-0.2428 0.7137,-0.5665 0.1727,-0.3458 0.1987,-0.7064 0.0771,-1.0889 -0.1208,-0.3789 -0.4336,-0.7358 -0.9417,-1.0705 -0.5476,-0.3606 -1.0189,-0.5078 -1.4122,-0.4378 -0.3162,0.0552 -0.5594,0.2612 -0.7355,0.6107 l 0.0034,-0.0074 z m 4.7272,-4.0173 0.0545,-0.0846 0.7765,0.8167 -1.2101,2.9762 -0.0922,-0.0478 0.0587,-0.1435 c 0.0663,-0.1619 0.0663,-0.3017 0.0042,-0.423 -0.0369,-0.0699 -0.151,-0.1545 -0.3422,-0.2539 l -2.1627,-1.1552 c -0.2097,-0.1103 -0.3497,-0.1545 -0.4235,-0.1287 -0.1031,0.0331 -0.1836,0.1251 -0.2424,0.2686 l -0.0587,0.1435 -0.0922,-0.0478 0.7061,-1.7401 0.0922,0.0478 c -0.0847,0.2023 -0.125,0.3532 -0.125,0.4562 0,0.0993 0.0218,0.1802 0.0621,0.2391 0.0403,0.0589 0.1619,0.1398 0.3606,0.2465 l 2.1074,1.1257 c 0.1367,0.0736 0.2357,0.1067 0.3019,0.1067 0.0444,-0.0037 0.0847,-0.0257 0.1174,-0.0626 0.0369,-0.0405 0.1031,-0.1802 0.2063,-0.4304 l 0.114,-0.2796 c 0.1216,-0.2943 0.1837,-0.5113 0.1946,-0.6511 0.0117,-0.1398 -0.0143,-0.2833 -0.0696,-0.4341 -0.0554,-0.1508 -0.1694,-0.3311 -0.338,-0.5371 V 54.9284 Z M 77.3145,51.29 c 0.166,-0.5187 0.4788,-0.8939 0.9417,-1.1294 0.4637,-0.2354 0.9527,-0.2464 1.4642,-0.033 0.53,0.2207 0.9048,0.5959 1.1329,1.122 0.2281,0.526 0.2541,1.0631 0.0847,1.6039 -0.1727,0.5481 -0.4931,0.9381 -0.9493,1.1698 -0.4596,0.2317 -0.9602,0.2354 -1.4969,0.0074 C 77.94,53.7989 77.5576,53.3979 77.3437,52.8204 77.1601,52.3201 77.1525,51.8087 77.3185,51.29 h -0.0042 z m 0.1694,0.1324 c -0.114,0.3569 -0.0881,0.6916 0.0738,1.0044 0.2021,0.3862 0.5811,0.6953 1.133,0.927 0.5661,0.2354 1.0483,0.2796 1.4416,0.1287 0.3019,-0.1177 0.5082,-0.3495 0.618,-0.7026 0.1174,-0.3752 0.0881,-0.7358 -0.088,-1.0853 -0.1769,-0.3495 -0.5409,-0.6401 -1.0885,-0.8682 -0.5929,-0.2464 -1.0818,-0.2979 -1.4567,-0.1508 -0.3019,0.1178 -0.5116,0.3679 -0.6331,0.7468 z m 1.4239,-5.9854 1.1548,0.2171 -0.0218,0.1067 c -0.3061,0.0257 -0.5484,0.1067 -0.7287,0.2354 -0.2575,0.1839 -0.4302,0.4709 -0.5149,0.8535 -0.114,0.5223 -0.0218,0.9749 0.2834,1.3502 0.2574,0.3164 0.5954,0.5334 1.0147,0.6548 0.3421,0.0993 0.6734,0.1104 0.9862,0.0405 0.3162,-0.0699 0.5661,-0.2098 0.7505,-0.4194 0.1837,-0.206 0.3053,-0.4414 0.364,-0.699 0.0327,-0.1508 0.0478,-0.3016 0.0444,-0.4562 -0.0042,-0.1508 -0.0226,-0.3016 -0.0595,-0.4525 l -1.0373,-0.298 c -0.1795,-0.0515 -0.3011,-0.0699 -0.364,-0.0552 -0.0621,0.0148 -0.1141,0.0516 -0.1577,0.1104 -0.0444,0.0552 -0.0847,0.1693 -0.1216,0.3348 l -0.0998,-0.0294 0.3463,-1.593 0.0989,0.0294 -0.0142,0.0772 c -0.0335,0.1582 -0.0117,0.2796 0.0662,0.3642 0.0545,0.0589 0.1795,0.1141 0.3715,0.1692 l 1.0994,0.3128 c 0.0587,0.2649 0.0881,0.5187 0.0922,0.7579 0.0034,0.2427 -0.026,0.5003 -0.0889,0.7762 -0.1728,0.7946 -0.5258,1.3354 -1.0592,1.6223 -0.4009,0.2134 -0.8202,0.2575 -1.2546,0.1324 -0.3162,-0.092 -0.5988,-0.2649 -0.8529,-0.5187 -0.2977,-0.3053 -0.504,-0.6622 -0.6105,-1.0778 -0.0889,-0.3458 -0.0889,-0.7247 0.0034,-1.1331 0.0335,-0.1508 0.0738,-0.2832 0.1216,-0.401 0.0478,-0.1178 0.1325,-0.2759 0.2541,-0.4782 0.0621,-0.103 0.0956,-0.1729 0.1023,-0.2134 0.0075,-0.0368 0,-0.0772 -0.0252,-0.1104 -0.026,-0.0368 -0.0813,-0.0699 -0.1694,-0.103 l 0.026,-0.1141 v 0.0074 z"
     style="fill:#c2dbf5;stroke-width:0px;stroke:none;stroke-opacity:1;fill-opacity:1"
     id="path27" /><path
     d="m 79.6358,41.8795 0.2021,-1.4604 0.0998,0.0184 -0.0109,0.0809 c -0.0075,0.0552 0.0034,0.1361 0.0293,0.2465 0.0252,0.1104 0.073,0.2134 0.1392,0.3127 0.0662,0.0994 0.1769,0.2244 0.3354,0.3826 l 1.2462,1.2618 0.9166,0.1656 c 0.2239,0.0404 0.3673,0.0367 0.4336,-0.0111 0.0847,-0.0625 0.1401,-0.1802 0.166,-0.3495 l 0.0185,-0.1361 0.0989,0.0185 -0.2465,1.7768 -0.099,-0.0184 0.0218,-0.1471 c 0.026,-0.1766 -0.0034,-0.3128 -0.0881,-0.4047 -0.052,-0.0552 -0.1803,-0.1031 -0.3824,-0.1398 l -0.8646,-0.1582 -1.6889,0.8718 c -0.1979,0.103 -0.3237,0.1729 -0.3749,0.2134 -0.0512,0.0405 -0.1216,0.1287 -0.2021,0.2722 -0.026,0.0368 -0.0403,0.0957 -0.052,0.1729 l -0.0989,-0.0184 0.2465,-1.7916 0.099,0.0185 -0.0109,0.0919 c -0.0143,0.0957 -0.0075,0.1876 0.0218,0.2759 0.0302,0.0882 0.0813,0.1398 0.1618,0.1545 0.0629,0.0111 0.192,-0.0294 0.3757,-0.125 l 1.2982,-0.6586 -1.0114,-1.0263 c -0.1509,-0.1546 -0.2683,-0.2391 -0.353,-0.2539 -0.052,-0.0111 -0.0998,-0.0037 -0.1401,0.0221 -0.0436,0.0221 -0.0805,0.0589 -0.1099,0.1104 -0.0294,0.0515 -0.052,0.1324 -0.0663,0.2465 l -0.0998,-0.0184 -0.0109,0.0036 z"
     style="fill:#c2dbf5;stroke-width:0px;stroke:none;stroke-opacity:1;fill-opacity:1"
     id="path28" /></g></svg>
